<svg width="28" height="28" viewBox="0 0 28 28" fill="none" xmlns="http://www.w3.org/2000/svg">
<rect width="28" height="28" rx="6" fill="#75B50E"/>
<path d="M21.0761 18.4018C21.8722 17.1245 22.3327 15.6161 22.3327 13.9996C22.3327 9.39697 18.602 5.66663 13.9993 5.66663C9.39668 5.66663 5.66602 9.39697 5.66602 13.9996C5.66602 18.6036 9.39668 22.3333 13.9993 22.3333C15.6159 22.3333 17.1245 21.8727 18.4021 21.0762L22.0547 22.0546L21.0761 18.4018ZM13.9993 9.55295C14.577 9.55295 15.0457 10.0213 15.0457 10.5993C15.0457 11.1769 14.5773 11.6456 13.9993 11.6456C13.4214 11.6456 12.953 11.1773 12.953 10.5993C12.953 10.0213 13.4217 9.55295 13.9993 9.55295ZM15.8303 18.4473H12.1684V16.8776H12.953V13.7386H12.1684V12.1693H15.0457V13.7386V16.8776H15.8304V18.4473H15.8303Z" fill="white"/>
</svg>
