<svg width="28" height="28" viewBox="0 0 28 28" fill="none" xmlns="http://www.w3.org/2000/svg">
<rect width="28" height="28" rx="6" fill="#006FFF"/>
<path d="M7.50649 9.62511C11.0908 6.12431 16.9092 6.12431 20.4935 9.62511L20.925 10.0497C21.106 10.2236 21.106 10.509 20.925 10.683L19.4495 12.1237C19.3591 12.2142 19.2129 12.2142 19.1224 12.1237L18.5308 11.546C16.0253 9.10312 11.9747 9.10312 9.46916 11.546L8.83581 12.1654C8.74533 12.2559 8.59918 12.2559 8.5087 12.1654L7.03322 10.7248C6.85226 10.5508 6.85226 10.2654 7.03322 10.0914L7.50649 9.62511ZM23.5489 12.6039L24.8643 13.8845C25.0452 14.0585 25.0452 14.3439 24.8643 14.5179L18.9415 20.3015C18.7605 20.4755 18.4682 20.4755 18.2942 20.3015L14.0905 16.1952C14.0487 16.1534 13.9722 16.1534 13.9304 16.1952L9.72667 20.3015C9.54571 20.4755 9.2534 20.4755 9.07941 20.3015L3.13572 14.5179C2.95476 14.3439 2.95476 14.0585 3.13572 13.8845L4.45112 12.6039C4.63208 12.4299 4.92439 12.4299 5.09839 12.6039L9.30212 16.7102C9.34388 16.752 9.42044 16.752 9.4622 16.7102L13.6659 12.6039C13.8469 12.4299 14.1392 12.4299 14.3132 12.6039L18.5169 16.7102C18.5587 16.752 18.6352 16.752 18.677 16.7102L22.8807 12.6039C23.0756 12.4299 23.3679 12.4299 23.5489 12.6039Z" fill="white"/>
</svg>
