<svg width="28" height="28" viewBox="0 0 28 28" fill="none" xmlns="http://www.w3.org/2000/svg">
<rect width="28" height="28" rx="6" fill="#ED7C52"/>
<path fill-rule="evenodd" clip-rule="evenodd" d="M22.9365 5.39246C23.1622 5.39246 23.3396 5.45696 23.4565 5.58194C23.5815 5.71095 23.6339 5.89238 23.6218 6.12621L23.5694 7.24296L23.5643 7.34772C23.5298 8.05829 23.4953 8.76536 23.4646 9.47244C23.4565 9.6458 23.4243 9.86754 23.2509 10.0409C23.2025 10.0893 23.1461 10.1296 23.0816 10.1659C22.9848 10.2183 22.8921 10.2425 22.7994 10.2425C22.5776 10.2425 22.4325 10.0973 22.3277 9.99252L21.4448 9.11363L13.6396 16.9188C13.4501 17.1043 13.2042 17.2091 12.9381 17.2091C12.672 17.2091 12.422 17.1043 12.2366 16.9188L9.12821 13.8105L5.8747 17.064C5.68924 17.2494 5.44332 17.3542 5.17723 17.3542C4.91114 17.3542 4.66118 17.2494 4.47573 17.064L4.29028 16.8785C3.90324 16.4915 3.90324 15.8666 4.29028 15.4795L8.43074 11.3431C8.61619 11.1577 8.86212 11.0528 9.12821 11.0528C9.39429 11.0528 9.64425 11.1577 9.82971 11.3431L12.9381 14.4515L19.8563 7.52921C19.6547 7.33166 19.4532 7.13008 19.2556 6.9285L18.9694 6.63822C18.8565 6.52534 18.6186 6.28747 18.7879 5.9206C18.8202 5.84803 18.8605 5.78755 18.9129 5.73514C19.0752 5.57285 19.2803 5.56213 19.4327 5.55416L19.4411 5.55372C20.0135 5.52751 20.585 5.5003 21.1565 5.47309C21.728 5.44587 22.2995 5.41866 22.872 5.39246H22.9365ZM21.4448 10.7747L18.5138 13.7056V21.7043C18.5138 21.8979 18.671 22.0591 18.8686 22.0591H21.3278C21.5214 22.0591 21.6826 21.9019 21.6826 21.7043V10.9964C21.6271 10.9492 21.5811 10.9058 21.5433 10.8701L21.5433 10.8701L21.5432 10.87C21.5262 10.854 21.5109 10.8396 21.4972 10.8271L21.4448 10.7747ZM14.1193 21.7043V18.0356C14.2443 17.9549 14.3612 17.8622 14.4701 17.7534L17.2882 14.9353V21.7043C17.2882 21.9019 17.1269 22.0591 16.9334 22.0591H14.4741C14.2766 22.0591 14.1193 21.8979 14.1193 21.7043ZM9.72488 16.0682V21.7043C9.72488 21.8979 9.88212 22.0591 10.0797 22.0591H12.5389C12.7325 22.0591 12.8937 21.9019 12.8937 21.7043V18.3863C12.3333 18.3742 11.8092 18.1525 11.4141 17.7574L9.72488 16.0682ZM5.33043 18.5234V21.7043C5.33043 21.8979 5.48766 22.0591 5.68521 22.0591H8.14449C8.33801 22.0591 8.49927 21.9019 8.49927 21.7043V16.1085L6.71327 17.8945C6.3343 18.2694 5.85051 18.4871 5.33043 18.5234Z" fill="white"/>
</svg>
