<svg width="28" height="28" viewBox="0 0 28 28" fill="none" xmlns="http://www.w3.org/2000/svg">
<rect width="28" height="28" rx="6" fill="#FF008A"/>
<path d="M18.9612 17.6513C19.4875 16.9586 19.8004 16.0953 19.8004 15.1602C19.8004 14.9572 19.7854 14.7577 19.757 14.5625H21.8547C21.7684 15.7714 21.405 16.946 20.7905 17.9895C20.6329 18.2572 20.7221 18.602 20.9897 18.7596C21.2573 18.9173 21.6022 18.828 21.7599 18.5604C22.5712 17.1828 23 15.6059 23 14C23 11.596 22.0638 9.33593 20.3639 7.63605C18.6641 5.93618 16.404 5 14 5C11.596 5 9.33593 5.93618 7.63605 7.63605C5.93618 9.33593 5 11.596 5 14C5 16.404 5.93618 18.6641 7.63605 20.3639C9.33593 22.0638 11.596 23 14 23C15.8875 23 17.6945 22.4218 19.2257 21.328C19.4785 21.1474 19.537 20.7961 19.3565 20.5433C19.1759 20.2905 18.8246 20.232 18.5718 20.4126C18.0074 20.8158 17.3999 21.1385 16.7624 21.3774C17.3314 20.6193 17.8069 19.62 18.1497 18.4591C18.155 18.455 18.1603 18.4509 18.1657 18.4468L21.3424 21.6235C21.4522 21.7334 21.5962 21.7883 21.7401 21.7883C21.884 21.7883 22.028 21.7334 22.1378 21.6235C22.3575 21.4039 22.3575 21.0477 22.1378 20.828L18.9612 17.6513ZM6.14532 14.5625H9.2506C9.29019 15.8149 9.4614 17.0194 9.75137 18.1115H7.28614C6.64254 17.0644 6.23704 15.8561 6.14532 14.5625ZM14.5625 8.76355V6.22878C15.1592 6.4477 15.7387 7.00858 16.236 7.86207C16.3973 8.13886 16.5465 8.44074 16.6826 8.76355H14.5625ZM17.0797 9.88855C17.2213 10.3735 17.3379 10.8886 17.4268 11.4254C16.8947 11.1747 16.3007 11.0343 15.6745 11.0343C15.2894 11.0343 14.9164 11.0875 14.5625 11.1867V9.88855H17.0797ZM13.4375 6.22994V8.76355H11.3169C11.3866 8.59884 11.4597 8.43877 11.5365 8.28426C12.074 7.20349 12.7452 6.48609 13.4375 6.22994ZM13.4375 9.88855V11.6949C12.7828 12.1191 12.2554 12.7235 11.9259 13.4375H10.376C10.4185 12.1685 10.6046 10.9596 10.9183 9.88858H13.4375V9.88855ZM9.25057 13.4375H6.14532C6.23708 12.1439 6.64257 10.9356 7.28614 9.88855H9.75137C9.4614 10.9806 9.29015 12.1851 9.25057 13.4375ZM10.376 14.5625H11.5921C11.5636 14.7577 11.5486 14.9572 11.5486 15.1602C11.5486 16.3158 12.0264 17.3617 12.7945 18.1115H10.9183C10.6046 17.0404 10.4185 15.8316 10.376 14.5625ZM13.4375 19.2365V21.7701C12.7452 21.5139 12.074 20.7965 11.5366 19.7157C11.4598 19.5613 11.3866 19.4012 11.3169 19.2365H13.4375ZM12.6736 15.1602C12.6736 13.5055 14.0198 12.1593 15.6745 12.1593C17.3292 12.1593 18.6754 13.5055 18.6754 15.1602C18.6754 16.8149 17.3292 18.1611 15.6745 18.1611C14.0198 18.1611 12.6736 16.8149 12.6736 15.1602ZM18.6793 12.3358C18.5969 11.4798 18.4499 10.6554 18.2463 9.88855H20.7139C21.3575 10.9356 21.763 12.1439 21.8547 13.4375H19.4231C19.2352 13.0303 18.9829 12.6587 18.6793 12.3358ZM19.8763 8.76355H17.8911C17.6931 8.229 17.4644 7.73561 17.208 7.29563C17.0676 7.05474 16.9198 6.83182 16.7657 6.62679C17.9699 7.07998 19.0347 7.82009 19.8763 8.76355ZM11.232 6.62766C10.9801 6.96436 10.7447 7.35009 10.5292 7.78332C10.3755 8.09245 10.2346 8.42011 10.107 8.76355H8.12374C8.96482 7.82073 10.0287 7.08097 11.232 6.62766ZM8.12374 19.2365H10.107C10.2346 19.5799 10.3755 19.9075 10.5292 20.2167C10.7447 20.6499 10.9801 21.0356 11.232 21.3723C10.0287 20.919 8.96482 20.1793 8.12374 19.2365ZM14.5625 21.7701V19.1337C14.9164 19.2329 15.2894 19.2861 15.6745 19.2861C16.0344 19.2861 16.3836 19.2397 16.7165 19.1527C16.1512 20.5259 15.3779 21.4677 14.5625 21.7701Z" fill="white"/>
</svg>
