<svg width="14" height="14" viewBox="0 0 14 14" fill="none" xmlns="http://www.w3.org/2000/svg">
<path d="M7 14C10.866 14 14 10.866 14 7C14 3.13401 10.866 0 7 0C3.13401 0 0 3.13401 0 7C0 10.866 3.13401 14 7 14Z" fill="#75B50E"/>
<path d="M6.50089 9.03655C6.39206 9.17683 6.19056 9.18957 6.06613 9.06403L4.59381 7.57854C4.34365 7.32615 3.94543 7.32615 3.69528 7.57854C3.43491 7.84124 3.43491 8.27522 3.69528 8.53792L5.38831 10.2461C5.8795 10.7417 6.6729 10.6995 7.11281 10.1545L11.0883 5.22935C11.3023 4.96425 11.283 4.57272 11.0441 4.33166C10.7753 4.06047 10.34 4.08798 10.1049 4.39102L6.50089 9.03655Z" fill="white"/>
</svg>
