<svg width="24" height="24" viewBox="0 0 24 24" fill="none" xmlns="http://www.w3.org/2000/svg">
<path d="M12 18C11.4477 18 11 17.5523 11 17L11 10C11 9.44772 11.4477 9 12 9V9C12.5523 9 13 9.44772 13 10L13 17C13 17.5523 12.5523 18 12 18V18Z" fill="white"/>
<path d="M12 8C11.4477 8 11 7.55228 11 7V7C11 6.44772 11.4477 6 12 6V6C12.5523 6 13 6.44772 13 7V7C13 7.55228 12.5523 8 12 8V8Z" fill="white"/>
<path fill-rule="evenodd" clip-rule="evenodd" d="M12 20.5C16.6944 20.5 20.5 16.6944 20.5 12C20.5 7.30558 16.6944 3.5 12 3.5C7.30558 3.5 3.5 7.30558 3.5 12C3.5 16.6944 7.30558 20.5 12 20.5ZM12 22C17.5228 22 22 17.5228 22 12C22 6.47715 17.5228 2 12 2C6.47715 2 2 6.47715 2 12C2 17.5228 6.47715 22 12 22Z" fill="white"/>
</svg>
