<svg width="28" height="28" viewBox="0 0 28 28" fill="none" xmlns="http://www.w3.org/2000/svg">
<rect width="28" height="28" rx="6" fill="#673AB7"/>
<path d="M10.0383 15.9525C10.5271 16.9279 11.3579 17.6959 12.3837 18.0911C12.0799 17.5028 11.8565 16.7589 11.7199 15.9525H10.0383Z" fill="white"/>
<path d="M10.0383 12.0462H11.7199C11.8565 11.2398 12.0799 10.4959 12.3837 9.90758C11.3579 10.3028 10.5271 11.0708 10.0383 12.0462Z" fill="white"/>
<path d="M14.0197 9.61143C14.0092 9.6113 13.9997 9.60838 13.9894 9.60838C13.5558 9.62237 12.9891 10.531 12.7088 12.0462H15.291C15.0126 10.5413 14.4521 9.63712 14.0197 9.61143Z" fill="white"/>
<path d="M13.9894 18.3903C13.9997 18.3902 14.0092 18.3874 14.0197 18.3873C14.452 18.3616 15.0126 17.4575 15.291 15.9525H12.7088C12.9891 17.4677 13.5558 18.3763 13.9894 18.3903Z" fill="white"/>
<path d="M11.5586 13.9993C11.5586 13.6745 11.5719 13.347 11.5984 13.0228H9.67765C9.60556 13.338 9.55965 13.6626 9.55965 13.9993C9.55965 14.3361 9.60568 14.6607 9.67765 14.9759H11.5984C11.5719 14.6517 11.5586 14.3242 11.5586 13.9993Z" fill="white"/>
<path d="M15.6352 9.94204C15.9296 10.5247 16.1462 11.2561 16.28 12.0462H17.8701C17.3983 11.1048 16.6125 10.3484 15.6352 9.94204Z" fill="white"/>
<path d="M16.4414 13.9993C16.4414 14.3242 16.428 14.6517 16.4016 14.9759H18.2307C18.3028 14.6607 18.3487 14.3361 18.3487 13.9993C18.3487 13.6626 18.3028 13.338 18.2307 13.0228H16.4016C16.428 13.347 16.4414 13.6745 16.4414 13.9993Z" fill="white"/>
<path d="M22.3333 13.9993C22.3333 9.42222 18.5771 5.66602 14 5.66602C9.42283 5.66602 5.66663 9.42222 5.66663 13.9993C5.66663 18.5765 9.42283 22.3327 14 22.3327C15.5316 22.3327 17.0198 21.8824 18.3192 21.0895L22.3333 22.3327L21.1879 18.1541C21.9163 16.8952 22.3333 15.4637 22.3333 13.9993ZM14.0391 19.3661C14.0259 19.3666 14.0134 19.3704 14 19.3704C13.995 19.3704 13.9906 19.3689 13.9856 19.3688C13.975 19.3689 13.9647 19.3704 13.9542 19.3704C10.9926 19.3704 8.58309 16.961 8.58309 13.9993C8.58309 11.0377 10.9926 8.62826 13.9542 8.62826C13.9647 8.62826 13.975 8.62978 13.9856 8.62991C13.9906 8.62978 13.995 8.62826 14 8.62826C14.0134 8.62826 14.0259 8.63207 14.0391 8.63258C16.9614 8.67861 19.3253 11.0664 19.3253 13.9993C19.3253 16.9323 16.9614 19.3201 14.0391 19.3661Z" fill="white"/>
<path d="M12.5757 13.0228C12.5499 13.3318 12.5351 13.6572 12.5351 13.9993C12.5351 14.3415 12.5499 14.6669 12.5757 14.9759H15.4242C15.4501 14.6669 15.4648 14.3415 15.4648 13.9993C15.4648 13.6572 15.4501 13.3318 15.4242 13.0228H12.5757Z" fill="white"/>
<path d="M15.6352 18.0567C16.6125 17.6503 17.3983 16.8939 17.8701 15.9525H16.28C16.1462 16.7426 15.9296 17.474 15.6352 18.0567Z" fill="white"/>
</svg>
