<svg width="28" height="28" viewBox="0 0 28 28" fill="none" xmlns="http://www.w3.org/2000/svg">
<rect width="28" height="28" rx="6" fill="#008276"/>
<path d="M13.3743 10.7333V13.1166L12.5327 12.825C12.1077 12.675 11.8493 12.5333 11.8493 11.8083C11.8493 11.2166 12.291 10.7333 12.8327 10.7333H13.3743Z" fill="white"/>
<path d="M16.1493 16.1916C16.1493 16.7833 15.7077 17.2666 15.166 17.2666H14.6243V14.8833L15.466 15.175C15.891 15.325 16.1493 15.4666 16.1493 16.1916Z" fill="white"/>
<path d="M17.491 5.66663H10.5077C7.47435 5.66663 5.66602 7.47496 5.66602 10.5083V17.4916C5.66602 20.525 7.47435 22.3333 10.5077 22.3333H17.491C20.5244 22.3333 22.3327 20.525 22.3327 17.4916V10.5083C22.3327 7.47496 20.5244 5.66663 17.491 5.66663ZM15.8827 14C16.5327 14.225 17.3993 14.7 17.3993 16.1916C17.3993 17.475 16.3993 18.5166 15.166 18.5166H14.6243V19C14.6243 19.3416 14.341 19.625 13.9993 19.625C13.6577 19.625 13.3743 19.3416 13.3743 19V18.5166H13.0743C11.7077 18.5166 10.5993 17.3583 10.5993 15.9416C10.5993 15.6 10.8743 15.3166 11.2243 15.3166C11.566 15.3166 11.8493 15.6 11.8493 15.9416C11.8493 16.675 12.3993 17.2666 13.0743 17.2666H13.3743V14.4416L12.116 14C11.466 13.775 10.5993 13.3 10.5993 11.8083C10.5993 10.525 11.5993 9.48329 12.8327 9.48329H13.3743V8.99996C13.3743 8.65829 13.6577 8.37496 13.9993 8.37496C14.341 8.37496 14.6243 8.65829 14.6243 8.99996V9.48329H14.9243C16.291 9.48329 17.3993 10.6416 17.3993 12.0583C17.3993 12.4 17.1243 12.6833 16.7743 12.6833C16.4327 12.6833 16.1493 12.4 16.1493 12.0583C16.1493 11.325 15.5993 10.7333 14.9243 10.7333H14.6243V13.5583L15.8827 14Z" fill="white"/>
</svg>
