<svg width="28" height="28" viewBox="0 0 28 28" fill="none" xmlns="http://www.w3.org/2000/svg">
<rect width="28" height="28" rx="6" fill="#E2441D"/>
<path fill-rule="evenodd" clip-rule="evenodd" d="M18.3059 12.611C20.2237 12.611 21.7782 11.0565 21.7782 9.13889C21.7782 7.22124 20.2237 5.66663 18.3059 5.66663C16.3883 5.66663 14.8338 7.22124 14.8338 9.13889C14.8338 11.0565 16.3883 12.611 18.3059 12.611ZM18.3101 13.9995L18.3101 13.9995L18.3101 13.9995C18.3087 13.9997 18.3073 13.9998 18.3059 13.9998C15.6261 13.9998 13.4448 11.8192 13.4448 9.13877C13.4448 8.4019 13.6143 7.70533 13.9095 7.07896C13.7566 7.06447 13.6017 7.05544 13.4448 7.05544C10.7602 7.05544 8.58377 9.23172 8.58377 11.9165V13.8526C8.58377 15.2269 7.98168 16.5242 6.92539 17.4172C6.57329 17.7179 6.41702 18.197 6.54341 18.6645C6.69066 19.2082 7.22815 19.5554 7.79209 19.5554H19.0941C19.6858 19.5554 20.2435 19.1721 20.3636 18.5922C20.4566 18.1436 20.2969 17.6956 19.949 17.4033C18.9393 16.5568 18.3552 15.313 18.3143 13.9992C18.3129 13.9992 18.3115 13.9994 18.3101 13.9995ZM13.4448 22.3334C14.7025 22.3334 15.7546 21.4368 15.9962 20.2501H10.8934C11.1352 21.4368 12.1873 22.3334 13.4448 22.3334Z" fill="white"/>
</svg>
