<svg width="24" height="24" viewBox="0 0 24 24" fill="none" xmlns="http://www.w3.org/2000/svg">
<path d="M17.4844 21H6.51562C4.57707 21 3 19.4229 3 17.4844V6.51562C3 4.57711 4.57707 3 6.51562 3H15.375C16.1262 3 16.8324 3.29254 17.3637 3.82375L20.1763 6.63628C20.7075 7.16749 21 7.87375 21 8.625V17.4844C21 19.4229 19.4229 21 17.4844 21ZM6.51562 4.40625C5.35252 4.40625 4.40625 5.35252 4.40625 6.51562V17.4844C4.40625 18.6475 5.35252 19.5938 6.51562 19.5938H17.4844C18.6475 19.5938 19.5938 18.6475 19.5938 17.4844V8.625C19.5938 8.24939 19.4475 7.89625 19.1819 7.63064L16.3694 4.81814C16.1038 4.55254 15.7506 4.40625 15.375 4.40625H6.51562Z" fill="white"/>
<path d="M13.2656 9.75H9.32812C8.16502 9.75 7.21875 8.80373 7.21875 7.64062V6.51562C7.21875 6.12729 7.53354 5.8125 7.92188 5.8125C8.31021 5.8125 8.625 6.12729 8.625 6.51562V7.64062C8.625 8.02833 8.94042 8.34375 9.32812 8.34375H13.2656C13.6533 8.34375 13.9688 8.02833 13.9688 7.64062V6.51562C13.9688 6.12729 14.2835 5.8125 14.6719 5.8125C15.0602 5.8125 15.375 6.12729 15.375 6.51562V7.64062C15.375 8.80373 14.4287 9.75 13.2656 9.75Z" fill="white"/>
<path d="M17.4844 18.1875C17.096 18.1875 16.7812 17.8727 16.7812 17.4844V13.2656C16.7812 12.8779 16.4658 12.5625 16.0781 12.5625H7.92188C7.53417 12.5625 7.21875 12.8779 7.21875 13.2656V17.4844C7.21875 17.8727 6.90396 18.1875 6.51562 18.1875C6.12729 18.1875 5.8125 17.8727 5.8125 17.4844V13.2656C5.8125 12.1025 6.75877 11.1562 7.92188 11.1562H16.0781C17.2412 11.1562 18.1875 12.1025 18.1875 13.2656V17.4844C18.1875 17.8727 17.8727 18.1875 17.4844 18.1875Z" fill="white"/>
<path d="M14.6719 15.375H9.32812C8.93979 15.375 8.625 15.0602 8.625 14.6719C8.625 14.2835 8.93979 13.9688 9.32812 13.9688H14.6719C15.0602 13.9688 15.375 14.2835 15.375 14.6719C15.375 15.0602 15.0602 15.375 14.6719 15.375Z" fill="white"/>
<path d="M14.6719 18.1875H9.32812C8.93979 18.1875 8.625 17.8727 8.625 17.4844C8.625 17.096 8.93979 16.7812 9.32812 16.7812H14.6719C15.0602 16.7812 15.375 17.096 15.375 17.4844C15.375 17.8727 15.0602 18.1875 14.6719 18.1875Z" fill="white"/>
</svg>
