<svg width="28" height="28" viewBox="0 0 28 28" fill="none" xmlns="http://www.w3.org/2000/svg">
<rect width="28" height="28" rx="6" fill="#757575"/>
<path d="M19.1035 11.9166H18.5827V9.83329C18.5827 7.53538 16.7139 5.66663 14.416 5.66663C12.1181 5.66663 10.2493 7.53538 10.2493 9.83329V11.9166H9.72852C8.8674 11.9166 8.16602 12.6173 8.16602 13.4791V20.7708C8.16602 21.6326 8.8674 22.3333 9.72852 22.3333H19.1035C19.9646 22.3333 20.666 21.6326 20.666 20.7708V13.4791C20.666 12.6173 19.9646 11.9166 19.1035 11.9166ZM11.6382 9.83329C11.6382 8.30135 12.8841 7.05551 14.416 7.05551C15.948 7.05551 17.1938 8.30135 17.1938 9.83329V11.9166H11.6382V9.83329ZM15.1105 17.2791V18.8611C15.1105 19.2444 14.8 19.5555 14.416 19.5555C14.032 19.5555 13.7216 19.2444 13.7216 18.8611V17.2791C13.3084 17.0382 13.0271 16.5951 13.0271 16.0833C13.0271 15.3173 13.65 14.6944 14.416 14.6944C15.182 14.6944 15.8049 15.3173 15.8049 16.0833C15.8049 16.5951 15.5237 17.0382 15.1105 17.2791Z" fill="white"/>
</svg>
