<svg width="28" height="28" viewBox="0 0 28 28" fill="none" xmlns="http://www.w3.org/2000/svg">
<rect width="28" height="28" rx="6" fill="#079BEE"/>
<path d="M6.97527 9.39048C7.13906 8.22465 7.67219 7.78466 8.78664 7.78466H18.8295C18.9948 7.7921 19.1508 7.86305 19.2651 7.98271C19.3794 8.10238 19.4431 8.26152 19.4429 8.42699V9.39048H6.97527ZM20.7275 9.41939V8.42699C20.7276 7.92089 20.5285 7.43508 20.1734 7.07452C19.8182 6.71396 19.3355 6.50759 18.8295 6.5H8.78664C5.9925 6.5 5.67455 8.77706 5.6328 9.95894C5.63135 9.97068 5.63135 9.98254 5.6328 9.99427V10.0328V20.3101C5.6328 20.8212 5.83582 21.3113 6.1972 21.6727C6.55858 22.0341 7.04872 22.2371 7.55979 22.2371H20.4064C20.9174 22.2371 21.4076 22.0341 21.769 21.6727C22.1303 21.3113 22.3334 20.8212 22.3334 20.3101V11.3175C22.3329 10.8624 22.1714 10.4222 21.8775 10.0748C21.5836 9.72741 21.1762 9.49523 20.7275 9.41939ZM18.64 17.4196C18.3541 17.4196 18.0747 17.3348 17.837 17.176C17.5994 17.0172 17.4141 16.7915 17.3047 16.5274C17.1954 16.2633 17.1667 15.9728 17.2225 15.6924C17.2783 15.4121 17.4159 15.1545 17.618 14.9524C17.8202 14.7503 18.0777 14.6127 18.358 14.5569C18.6384 14.5011 18.929 14.5297 19.193 14.6391C19.4571 14.7485 19.6828 14.9338 19.8416 15.1714C20.0004 15.4091 20.0852 15.6885 20.0852 15.9744C20.0856 16.1643 20.0485 16.3524 19.9761 16.5279C19.9036 16.7035 19.7971 16.863 19.6629 16.9972C19.5286 17.1315 19.3691 17.238 19.1935 17.3105C19.018 17.3829 18.8299 17.42 18.64 17.4196Z" fill="white"/>
</svg>
