<svg width="28" height="28" viewBox="0 0 28 28" fill="none" xmlns="http://www.w3.org/2000/svg">
<rect width="28" height="28" rx="6" fill="#7B61FF"/>
<path d="M19.8797 5.25H8.12344C7.63656 5.25 7.24219 5.64438 7.24219 6.13125V21.8556C7.24219 22.6206 8.14969 23.0225 8.71594 22.5081L13.4097 18.2463C13.7459 17.9413 14.2584 17.9413 14.5947 18.2463L19.2884 22.5081C19.8547 23.0225 20.7622 22.6206 20.7622 21.8556V6.13125C20.7609 5.64438 20.3666 5.25 19.8797 5.25ZM16.7166 9.40625H11.2866C10.9759 9.40625 10.7241 9.15438 10.7241 8.84375C10.7241 8.53313 10.9759 8.28125 11.2866 8.28125H16.7166C17.0272 8.28125 17.2791 8.53313 17.2791 8.84375C17.2791 9.15438 17.0272 9.40625 16.7166 9.40625Z" fill="white"/>
</svg>
