<svg width="24" height="24" viewBox="0 0 24 24" fill="none" xmlns="http://www.w3.org/2000/svg">
<path d="M4.5 12C4.5 11.7239 4.72386 11.5 5 11.5H10.5V12.5H5C4.72386 12.5 4.5 12.2761 4.5 12ZM11.5 12.5V11.5H12.5L12.5 12.5H11.5ZM12.5 10.5H11.5L11.5 5C11.5 4.72386 11.7239 4.5 12 4.5C12.2761 4.5 12.5 4.72386 12.5 5V10.5ZM13.5 12.5L13.5 11.5H19C19.2761 11.5 19.5 11.7239 19.5 12C19.5 12.2761 19.2761 12.5 19 12.5H13.5ZM11.5 13.5H12.5V19C12.5 19.2761 12.2761 19.5 12 19.5C11.7239 19.5 11.5 19.2761 11.5 19L11.5 13.5Z" fill="#1F2022" stroke="white"/>
</svg>
