<svg width="32" height="32" viewBox="0 0 32 32" fill="none" xmlns="http://www.w3.org/2000/svg">
<path d="M16 32C24.8366 32 32 24.8366 32 16C32 7.16344 24.8366 0 16 0C7.16344 0 0 7.16344 0 16C0 24.8366 7.16344 32 16 32Z" fill="#0578CC"/>
<path d="M9.28711 10.7691C9.44402 9.6522 9.95476 9.23069 11.0224 9.23069H20.6433C20.8016 9.23782 20.9511 9.30579 21.0606 9.42042C21.1701 9.53506 21.2311 9.68752 21.2309 9.84603V10.7691H9.28711ZM22.4616 10.7967V9.84603C22.4617 9.3612 22.271 8.8958 21.9308 8.55038C21.5905 8.20497 21.1281 8.00727 20.6433 8H11.0224C8.34563 8 8.04104 10.1814 8.00104 11.3136C7.99965 11.3249 7.99965 11.3362 8.00104 11.3475V11.3844V21.2299C8.00104 21.7195 8.19553 22.1891 8.54173 22.5353C8.88793 22.8815 9.35747 23.0759 9.84707 23.0759H22.154C22.6436 23.0759 23.1131 22.8815 23.4593 22.5353C23.8055 22.1891 24 21.7195 24 21.2299V12.6151C23.9996 12.1792 23.8449 11.7574 23.5633 11.4246C23.2817 11.0918 22.8915 10.8694 22.4616 10.7967ZM20.4618 18.4609C20.1879 18.4609 19.9203 18.3797 19.6926 18.2275C19.4649 18.0754 19.2874 17.8592 19.1826 17.6062C19.0778 17.3532 19.0504 17.0748 19.1038 16.8062C19.1573 16.5377 19.2891 16.291 19.4828 16.0973C19.6764 15.9037 19.9231 15.7718 20.1917 15.7184C20.4602 15.665 20.7386 15.6924 20.9916 15.7972C21.2446 15.902 21.4608 16.0794 21.613 16.3071C21.7651 16.5348 21.8463 16.8025 21.8463 17.0763C21.8467 17.2583 21.8112 17.4385 21.7417 17.6066C21.6723 17.7748 21.5703 17.9276 21.4417 18.0562C21.313 18.1849 21.1602 18.2869 20.9921 18.3563C20.8239 18.4257 20.6437 18.4613 20.4618 18.4609Z" fill="white"/>
</svg>
