<svg width="28" height="28" viewBox="0 0 28 28" fill="none" xmlns="http://www.w3.org/2000/svg">
<rect width="28" height="28" rx="6" fill="url(#paint0_linear_5343_12886)"/>
<path d="M23.9964 11.8227V11.7856C23.9928 11.6886 23.9844 11.5928 23.9737 11.497C23.9629 11.4012 23.9485 11.3078 23.9305 11.2144C23.9281 11.2 23.9257 11.1844 23.9222 11.1701C23.9138 11.1281 23.9054 11.0874 23.8958 11.0467C23.891 11.0251 23.8862 11.0048 23.8802 10.9844C23.8755 10.9629 23.8695 10.9425 23.8635 10.9221C23.8599 10.9042 23.8539 10.8874 23.8491 10.8707C23.8263 10.7868 23.8 10.703 23.7701 10.6215C23.7533 10.5748 23.7365 10.5293 23.7186 10.4838C23.7006 10.4383 23.6814 10.394 23.6611 10.3497C23.6419 10.3054 23.6216 10.2611 23.6 10.218C23.5784 10.1736 23.5569 10.1305 23.5341 10.0886C23.5114 10.0455 23.4874 10.0036 23.4623 9.96167C23.4383 9.91975 23.4132 9.87784 23.388 9.83712C23.3629 9.7964 23.3365 9.75688 23.309 9.71736C22.721 8.85988 21.8036 8.24671 20.7389 8.06108C20.6743 8.0503 20.6096 8.03952 20.5437 8.03114C20.5102 8.02754 20.4779 8.02395 20.4443 8.02036C20.4108 8.01677 20.3773 8.01437 20.3449 8.01198C20.3234 8.00958 20.3018 8.00838 20.2803 8.00719C20.2467 8.00479 20.2132 8.00359 20.1797 8.0024C20.1341 8.0012 20.0874 8 20.0407 8C20.0072 8 19.9725 8 19.9389 8.0012C19.9054 8.0024 19.8719 8.00359 19.8395 8.00599C19.8168 8.00599 19.7952 8.00719 19.7737 8.00958C19.7701 8.00958 19.7665 8.01078 19.7629 8.01078C19.7557 8.01078 19.7485 8.01078 19.7413 8.01198C19.7341 8.01198 19.7282 8.01317 19.721 8.01317C19.691 8.01557 19.6611 8.01796 19.6312 8.02156C19.5797 8.02754 19.5282 8.03353 19.4767 8.04072C19.4312 8.04671 19.3856 8.05509 19.3401 8.06347C19.3365 8.06347 19.3341 8.06467 19.3318 8.06467C19.2922 8.07186 19.2515 8.07904 19.212 8.08862C19.2 8.09102 19.1892 8.09461 19.1785 8.09701C19.1425 8.10299 19.1078 8.11138 19.0731 8.12096C19.0623 8.12216 19.0515 8.12575 19.0407 8.12934C19.024 8.13293 19.0072 8.13772 18.9916 8.14251C18.9904 8.14251 18.9892 8.14371 18.9868 8.14371C18.9797 8.14611 18.9713 8.1485 18.9629 8.1509C18.9533 8.1521 18.9449 8.15569 18.9353 8.15808C18.8455 8.18323 18.7569 8.21317 18.6707 8.24551C18.6659 8.24671 18.6623 8.2479 18.6587 8.2503C18.6335 8.25988 18.6084 8.27066 18.5821 8.28024C18.5809 8.27904 18.5797 8.27904 18.5797 8.28024C18.5713 8.28263 18.5629 8.28623 18.5545 8.29102C18.5246 8.3018 18.4958 8.31377 18.4671 8.32695C18.4599 8.32934 18.4527 8.33293 18.4455 8.33653C18.4204 8.3473 18.3952 8.35928 18.3701 8.37126C18.3473 8.38084 18.3258 8.39162 18.3042 8.4012C18.297 8.40599 18.2898 8.40958 18.2827 8.41317C18.2395 8.43353 18.1988 8.45509 18.1569 8.47784C18.7629 9.08383 19.2132 9.8479 19.4371 10.7018C19.6192 10.6132 19.824 10.5641 20.0407 10.5641C20.806 10.5641 21.4264 11.1844 21.4264 11.9485C21.4264 12.7138 20.806 13.3341 20.0407 13.3341C19.824 13.3341 19.6192 13.285 19.4371 13.1964C19.2791 13.1197 19.1365 13.0132 19.0192 12.8838C19.018 12.8886 19.0168 12.8922 19.0156 12.897C19.0144 12.8946 19.012 12.8934 19.0108 12.891C18.9916 12.8706 18.9737 12.8503 18.9569 12.8287C18.9533 12.8239 18.9497 12.8191 18.9461 12.8144C18.9258 12.7892 18.9066 12.7629 18.8874 12.7353C18.8862 12.7341 18.8862 12.7329 18.885 12.7317C18.8755 12.7174 18.8659 12.7018 18.8563 12.6862C18.8383 12.6587 18.8228 12.6299 18.8072 12.6012C18.7964 12.5796 18.7844 12.5569 18.7737 12.5329C18.7713 12.5269 18.7677 12.5197 18.7653 12.5138C18.7569 12.4946 18.7485 12.4754 18.7413 12.4563C18.7294 12.4275 18.7198 12.3976 18.7102 12.3677C18.7006 12.3377 18.6922 12.3078 18.685 12.2766C18.6791 12.2491 18.6731 12.2215 18.6683 12.194C18.6647 12.1736 18.6611 12.1545 18.6587 12.1353V12.1317C18.6575 12.1221 18.6551 12.1126 18.6551 12.103C18.6527 12.0934 18.6527 12.0838 18.6515 12.073C18.6503 12.0527 18.6479 12.0323 18.6479 12.012C18.6467 12.0012 18.6467 11.9916 18.6467 11.9808C18.6467 11.9772 18.6455 11.9736 18.6467 11.97V11.9497C18.6467 11.5353 18.5809 11.1365 18.4611 10.7605C18.4503 10.7245 18.4383 10.6886 18.4252 10.6539C18.4216 10.6431 18.4168 10.6335 18.4132 10.6227C18.4048 10.6 18.3976 10.5748 18.388 10.5533C18.3797 10.5305 18.3713 10.5078 18.3617 10.485C18.3581 10.4754 18.3533 10.4647 18.3485 10.4551C18.3437 10.4419 18.3377 10.4287 18.3318 10.4168C18.3282 10.4096 18.3246 10.4012 18.3222 10.3928C18.315 10.3784 18.309 10.3653 18.3042 10.3509C18.3018 10.3473 18.2994 10.3413 18.2982 10.3377C18.2958 10.3329 18.2934 10.3293 18.2922 10.3257C18.2922 10.3245 18.291 10.3245 18.291 10.3233C18.2827 10.3054 18.2743 10.2886 18.2659 10.2707C18.2623 10.2611 18.2587 10.2527 18.2539 10.2443C18.2503 10.2347 18.2467 10.2263 18.2419 10.218C18.2347 10.2036 18.2276 10.1892 18.2192 10.1748C18.2168 10.1677 18.2132 10.1617 18.2096 10.1545C18.2084 10.1533 18.2084 10.1521 18.2072 10.1509C18.2012 10.1401 18.1952 10.1281 18.1892 10.1162C18.1844 10.1066 18.1797 10.0982 18.1749 10.0886C18.1737 10.0874 18.1737 10.0862 18.1725 10.085C18.1701 10.079 18.1665 10.073 18.1629 10.0659C18.1485 10.0395 18.133 10.012 18.1174 9.98562C18.1138 9.97844 18.109 9.97005 18.1042 9.96287C18.103 9.96167 18.103 9.95928 18.1006 9.95808C18.1006 9.95688 18.1006 9.95568 18.0994 9.95449C18.0982 9.95329 18.0982 9.95209 18.0982 9.95089C18.097 9.9485 18.0958 9.9461 18.0946 9.9449C18.0815 9.92335 18.0695 9.90299 18.0563 9.88263C18.0503 9.87185 18.0443 9.86227 18.0383 9.85269L18.0347 9.8491C18.0347 9.8479 18.0336 9.8467 18.0324 9.8455C18.0324 9.84311 18.03 9.84191 18.0288 9.83952C18.0264 9.83592 18.0252 9.83353 18.0228 9.82993C18.0192 9.82395 18.0156 9.81796 18.0108 9.81197C18 9.79401 17.9892 9.77604 17.9761 9.75928C17.9677 9.7449 17.9581 9.73173 17.9485 9.71736C17.9282 9.68742 17.9066 9.65748 17.885 9.62754C17.8659 9.6 17.8455 9.57245 17.8252 9.5461C17.8228 9.54371 17.8204 9.54131 17.8192 9.53892C17.8168 9.53652 17.8156 9.53413 17.8132 9.53173C17.8096 9.52694 17.806 9.52335 17.8024 9.51856C17.7976 9.51137 17.7916 9.50419 17.7868 9.4982C17.7749 9.48263 17.7629 9.46826 17.7497 9.45269C17.7377 9.43832 17.7258 9.42275 17.7126 9.40838C17.7066 9.40119 17.7006 9.39401 17.6946 9.38682C17.6934 9.38562 17.6934 9.38562 17.6934 9.38443C17.6886 9.37844 17.6827 9.37245 17.6779 9.36646C17.6731 9.36047 17.6683 9.35568 17.6623 9.3497C17.6467 9.33173 17.6312 9.31257 17.6144 9.2958C17.6 9.27904 17.5845 9.26347 17.5701 9.2479L17.5653 9.24311C17.5545 9.22994 17.5425 9.21676 17.5294 9.20479C17.5258 9.2 17.521 9.19521 17.5162 9.19161C17.5078 9.18203 17.4994 9.17365 17.4898 9.16527C17.4779 9.15209 17.4647 9.13892 17.4515 9.12694C17.4288 9.10419 17.4048 9.08143 17.3809 9.05868C17.3797 9.05748 17.3773 9.05628 17.3761 9.05509C17.3749 9.05389 17.3749 9.05389 17.3737 9.05269C17.3725 9.05149 17.3725 9.05149 17.3713 9.0503L17.3701 9.0491C17.3689 9.0467 17.3665 9.04551 17.3653 9.04551C17.3354 9.01796 17.3054 8.98922 17.2743 8.96287C17.2647 8.95329 17.2539 8.94491 17.2431 8.93652C17.206 8.90419 17.1677 8.87305 17.1282 8.84191C17.127 8.84072 17.1258 8.83952 17.1234 8.83832C17.0803 8.80479 17.0371 8.77245 16.9928 8.74012C16.9617 8.71856 16.9306 8.69581 16.8982 8.67425C16.8731 8.65629 16.8455 8.63952 16.8192 8.62275C16.7868 8.6012 16.7545 8.58084 16.721 8.56167C16.6743 8.53293 16.6276 8.50659 16.5797 8.48024C16.5773 8.47904 16.5761 8.47784 16.5749 8.47784C16.5737 8.47665 16.5725 8.47665 16.5713 8.47665C16.5258 8.4515 16.4803 8.42754 16.4336 8.40479C16.3845 8.38084 16.3354 8.35689 16.2851 8.33533C16.2551 8.32096 16.224 8.30778 16.1928 8.29581C16.1306 8.26946 16.0683 8.24551 16.0048 8.22395C15.9737 8.21317 15.9425 8.20239 15.9114 8.19162C15.9018 8.18802 15.8922 8.18563 15.8827 8.18323C15.836 8.16766 15.7892 8.15449 15.7413 8.14132C15.6851 8.12575 15.6264 8.11138 15.5689 8.0982C15.5102 8.08503 15.4515 8.07305 15.3928 8.06228C15.3342 8.0515 15.2743 8.04311 15.2144 8.03473C15.1916 8.03114 15.1677 8.02874 15.1437 8.02515C15.127 8.02395 15.1114 8.02156 15.0946 8.02036C15.0755 8.01796 15.0575 8.01677 15.0384 8.01437C15.0264 8.01317 15.0144 8.01317 15.0036 8.01198C14.9845 8.01078 14.9653 8.00958 14.9461 8.00838C14.9318 8.00719 14.9174 8.00599 14.903 8.00599C14.8731 8.00359 14.8443 8.0024 14.8144 8.0024C14.7773 8.0012 14.7378 8 14.6994 8C14.6659 8 14.6312 8 14.5976 8.0012H14.5893C14.5581 8.0024 14.5282 8.00359 14.4982 8.00599C14.4755 8.00599 14.4539 8.00719 14.4324 8.00958C14.4288 8.00958 14.4252 8.01078 14.4216 8.01078C14.4144 8.01078 14.4072 8.01078 14.4 8.01198C14.3928 8.01198 14.3869 8.01317 14.3797 8.01317C14.3497 8.01557 14.3198 8.01796 14.2899 8.02156C14.2384 8.02754 14.1869 8.03353 14.1354 8.04072C14.0899 8.04671 14.0443 8.05509 13.9988 8.06347C13.9952 8.06347 13.9928 8.06467 13.9904 8.06467C13.9713 8.06826 13.9509 8.07186 13.9306 8.07545C13.9102 8.07904 13.8899 8.08383 13.8707 8.08862C13.8587 8.09102 13.8479 8.09461 13.8372 8.09701C13.818 8.1018 13.7976 8.10539 13.7797 8.11018C13.7725 8.11257 13.7641 8.11377 13.7557 8.11497C13.7473 8.11617 13.7402 8.11856 13.7318 8.12096C13.7306 8.12096 13.7294 8.12096 13.7282 8.12216C13.7186 8.12455 13.709 8.12695 13.6994 8.12934C13.6827 8.13293 13.6659 8.13772 13.6503 8.14251C13.6491 8.14251 13.6479 8.14371 13.6467 8.14371C13.6455 8.14371 13.6443 8.14491 13.6431 8.14491C13.6396 8.14491 13.636 8.14611 13.6324 8.1485C13.6288 8.1485 13.6252 8.1497 13.6216 8.1509C13.612 8.1521 13.6036 8.15569 13.594 8.15808C13.5857 8.16048 13.5773 8.16287 13.5689 8.16527C13.533 8.17605 13.4982 8.18683 13.4623 8.1976C13.4599 8.1988 13.4575 8.2 13.4551 8.2C12.9162 8.37605 12.4276 8.66467 12.0204 9.04072C11.2707 9.72814 10.7869 10.703 10.745 11.7904C10.7426 11.8431 10.7414 11.8958 10.7414 11.9485C10.7414 12.0048 10.7426 12.0611 10.745 12.1162V12.1221C10.7473 12.1653 10.7497 12.2096 10.7533 12.2527C10.7533 12.2527 10.7533 12.2539 10.7533 12.2551C10.7545 12.2778 10.7569 12.3006 10.7593 12.3233C10.7689 12.4251 10.7821 12.5245 10.7988 12.6239C10.806 12.6647 10.8132 12.7042 10.8216 12.7449C10.8252 12.7641 10.83 12.7832 10.8336 12.8036C10.8444 12.8479 10.8539 12.8922 10.8659 12.9353C10.8671 12.9401 10.8683 12.9449 10.8695 12.9485C10.8827 13.0024 10.8982 13.0539 10.9138 13.1066C10.915 13.1126 10.9174 13.1173 10.9186 13.1233C10.933 13.17 10.9485 13.2168 10.9653 13.2623C10.9809 13.3078 10.9976 13.3521 11.0156 13.3964C11.018 13.4024 11.0204 13.4084 11.0228 13.4144C11.0432 13.4647 11.0635 13.515 11.0863 13.5641C11.1078 13.6132 11.1318 13.6623 11.1557 13.7102C11.1701 13.7413 11.1869 13.7712 11.2024 13.8012C11.2156 13.8275 11.23 13.8527 11.2444 13.8778C11.2467 13.8826 11.2503 13.8874 11.2527 13.8922C11.2719 13.9257 11.2911 13.9593 11.3114 13.9928C11.339 14.0383 11.3677 14.0838 11.3976 14.1281C11.4276 14.1724 11.4575 14.2167 11.4887 14.2599C11.5198 14.303 11.5521 14.3461 11.5857 14.388C11.6503 14.4718 11.721 14.5533 11.7941 14.6311C11.83 14.6706 11.8671 14.709 11.9042 14.7461C11.939 14.7808 11.9749 14.8155 12.0108 14.8491C12.012 14.8503 12.0144 14.8515 12.0156 14.8527C12.0228 14.8599 12.0288 14.8658 12.036 14.8718C12.0695 14.903 12.1042 14.9329 12.1402 14.9629C12.1809 14.9976 12.2228 15.0311 12.2647 15.0646C12.3066 15.097 12.3497 15.1293 12.3929 15.1605C12.4348 15.1904 12.4767 15.2191 12.5186 15.2479C12.533 15.2575 12.5473 15.267 12.5617 15.2754C12.594 15.297 12.6276 15.3173 12.6611 15.3365C12.7066 15.364 12.7533 15.3904 12.8012 15.4167C12.8479 15.4419 12.8958 15.467 12.9437 15.491C13.0408 15.5389 13.139 15.5832 13.2408 15.6227C13.2408 15.6239 13.242 15.6239 13.2431 15.6239C13.2922 15.6431 13.3425 15.6611 13.394 15.679C13.4958 15.7161 13.6012 15.7473 13.7078 15.7748L13.4168 16.1892L13.1282 16.6012L12.9414 16.8694L12.3689 17.6874L10.7533 15.382L10.7473 15.3736C10.7497 15.376 10.7509 15.3796 10.7533 15.382L10.1222 14.479C10.1234 14.4826 10.1258 14.485 10.127 14.4886L10.1222 14.479L6.31503 9.04311C5.91143 8.46706 5.11862 8.32695 4.54258 8.73054C3.96653 9.13293 3.82761 9.92694 4.23 10.5018L10.9198 20.0527L11.103 20.3149H13.6336L16.23 16.6096L16.6922 15.9485C16.6791 15.9377 16.6671 15.9281 16.6551 15.9173C16.6958 15.897 16.7354 15.8754 16.7761 15.8539L16.8827 15.7018C16.7761 15.6132 16.6731 15.5185 16.5749 15.4203C15.9689 14.8155 15.5198 14.0527 15.2946 13.2C15.2946 13.1988 15.2934 13.1976 15.2934 13.1964C15.133 13.2742 14.9569 13.3209 14.7713 13.3317C14.7473 13.3329 14.7234 13.3341 14.6994 13.3341C14.6707 13.3341 14.6431 13.3329 14.6156 13.3317C14.5689 13.3293 14.5234 13.3245 14.4779 13.3173C14.1629 13.2694 13.8827 13.1138 13.6755 12.891C13.5066 12.709 13.3857 12.4802 13.3342 12.2275C13.3306 12.2168 13.3294 12.2048 13.327 12.194C13.3246 12.1796 13.3222 12.1653 13.3198 12.1521C13.3186 12.1461 13.3186 12.1413 13.3174 12.1353V12.1317C13.315 12.1186 13.3126 12.1042 13.3126 12.0898C13.3078 12.0443 13.3054 11.9976 13.3054 11.9497C13.3054 11.3988 13.6276 10.9209 14.0946 10.6982C14.2324 10.6323 14.3845 10.5892 14.5437 10.5724C14.5665 10.5701 14.5893 10.5677 14.612 10.5665C14.6384 10.5653 14.6647 10.5641 14.691 10.5641H14.6994C14.7294 10.5641 14.7593 10.5653 14.7892 10.5677C14.8563 10.5712 14.9222 10.5808 14.9857 10.5952C15.0934 10.6192 15.1964 10.6551 15.2934 10.7018C15.4515 10.7784 15.594 10.8838 15.7114 11.0132C15.7114 11.0108 15.7126 11.0084 15.7126 11.006C15.7138 11.0012 15.715 10.9964 15.7162 10.9916C15.721 10.9964 15.7258 11.0012 15.7294 11.0048C15.7354 11.012 15.7425 11.0192 15.7485 11.0263C15.7737 11.0551 15.7976 11.085 15.8192 11.115C15.8192 11.115 15.8192 11.115 15.8204 11.1162C15.8431 11.1461 15.8635 11.176 15.8827 11.2084C15.8839 11.2096 15.8851 11.2108 15.8863 11.2132C15.903 11.2419 15.9198 11.2706 15.9354 11.3006C15.9378 11.3042 15.9401 11.309 15.9425 11.3138C15.9581 11.3449 15.9737 11.3772 15.9869 11.4096C15.9904 11.418 15.994 11.4275 15.9976 11.4359C16.0024 11.4491 16.0072 11.4623 16.012 11.4754C16.024 11.5066 16.0348 11.5401 16.0431 11.5724C16.0491 11.5916 16.0539 11.6108 16.0575 11.6287C16.0611 11.6395 16.0635 11.6503 16.0647 11.6611C16.0719 11.6958 16.0779 11.7305 16.0827 11.7653C16.0875 11.7976 16.0898 11.8299 16.0922 11.8623V11.8694C16.091 11.8958 16.091 11.9221 16.091 11.9485C16.091 13.097 16.5821 14.1317 17.3653 14.8539C17.388 14.8742 17.4108 14.8946 17.4336 14.9149C17.5318 15.0012 17.6336 15.0826 17.7389 15.1593C17.8719 15.2539 18.012 15.3425 18.1569 15.4203C18.4683 15.5904 18.8048 15.7185 19.1605 15.8L16.0827 20.3149H18.994L23.0623 14.5042C23.0635 14.503 23.0647 14.5006 23.0659 14.4994C23.0659 14.4982 23.0671 14.4982 23.0671 14.497C23.0683 14.4958 23.0683 14.4958 23.0683 14.4946C23.0695 14.4934 23.0707 14.4934 23.0707 14.4922L23.0743 14.4886C23.0755 14.4874 23.0767 14.485 23.0778 14.485C23.2264 14.309 23.3593 14.1185 23.4743 13.9185C23.4755 13.9173 23.4755 13.9162 23.4766 13.915C23.497 13.879 23.5174 13.8419 23.5365 13.8048C23.5557 13.7676 23.576 13.7305 23.594 13.6922C23.612 13.6551 23.6299 13.6167 23.6479 13.5784C23.6647 13.5401 23.6814 13.5018 23.6982 13.4635C23.7138 13.4239 23.7293 13.3856 23.7437 13.3461C23.7868 13.2383 23.8228 13.1269 23.8539 13.0144C23.8599 12.9976 23.8635 12.9808 23.8671 12.9641C23.8766 12.9305 23.885 12.897 23.8922 12.8635C23.8946 12.8587 23.8958 12.8551 23.8958 12.8503C23.9162 12.77 23.9317 12.6886 23.9449 12.606C23.9521 12.5629 23.9581 12.5197 23.9641 12.4766C23.976 12.3904 23.9856 12.303 23.9904 12.2156C23.9976 12.1281 24 12.0383 24 11.9497C24 11.9066 23.9988 11.8647 23.9964 11.8227ZM18.9785 8.1485C18.9761 8.1485 18.9749 8.1485 18.9725 8.1497C18.9725 8.1497 18.9725 8.1485 18.9737 8.1485C18.9749 8.1485 18.9773 8.1473 18.9797 8.1473C18.9797 8.1473 18.9797 8.1485 18.9785 8.1485Z" fill="white"/>
<path d="M16.7761 15.8539L16.7713 15.861L13.6527 20.3149L13.6336 20.3149L16.23 16.6096L16.6922 15.9485C16.6791 15.9377 16.6671 15.9281 16.6551 15.9173C16.6958 15.897 16.7354 15.8754 16.7761 15.8539Z" fill="white"/>
<defs>
<linearGradient id="paint0_linear_5343_12886" x1="4.08333" y1="2.91667" x2="20.4167" y2="28" gradientUnits="userSpaceOnUse">
<stop offset="0.239583" stop-color="#FBAB00"/>
<stop offset="1" stop-color="#9C6A00"/>
</linearGradient>
</defs>
</svg>
