<svg width="24" height="24" viewBox="0 0 24 24" fill="none" xmlns="http://www.w3.org/2000/svg">
<path d="M20.3715 7.09767C20.3529 7.09767 20.325 7.09767 20.2971 7.09767C15.3762 6.60465 10.4645 6.4186 5.59943 6.91163L3.70175 7.09767C3.31105 7.13488 2.96687 6.85581 2.92966 6.46512C2.89245 6.07442 3.17152 5.73953 3.55291 5.70233L5.45059 5.51628C10.3994 5.01395 15.4134 5.2093 20.4366 5.70233C20.818 5.73953 21.0971 6.08372 21.0599 6.46512C21.032 6.82791 20.725 7.09767 20.3715 7.09767Z" fill="white"/>
<path d="M8.74361 6.15814C8.7064 6.15814 8.66919 6.15814 8.62268 6.14884C8.25059 6.08372 7.99012 5.72093 8.05524 5.34884L8.25989 4.13023C8.40873 3.23721 8.61338 2 10.7808 2H13.218C15.3948 2 15.5994 3.28372 15.739 4.13953L15.9436 5.34884C16.0087 5.73023 15.7483 6.09302 15.3762 6.14884C14.9948 6.21395 14.632 5.95349 14.5762 5.5814L14.3715 4.37209C14.2413 3.56279 14.2134 3.40465 13.2273 3.40465H10.7901C9.80408 3.40465 9.78547 3.53488 9.64594 4.36279L9.43198 5.57209C9.37617 5.91628 9.0785 6.15814 8.74361 6.15814Z" fill="white"/>
<path d="M14.9855 22H9.01338C5.76687 22 5.63664 20.2047 5.53431 18.7535L4.92966 9.38605C4.90175 9.00465 5.19943 8.66977 5.58082 8.64186C5.97152 8.62326 6.2971 8.91163 6.32501 9.29302L6.92966 18.6605C7.03198 20.0744 7.06919 20.6047 9.01338 20.6047H14.9855C16.939 20.6047 16.9762 20.0744 17.0692 18.6605L17.6738 9.29302C17.7018 8.91163 18.0366 8.62326 18.418 8.64186C18.7994 8.66977 19.0971 8.99535 19.0692 9.38605L18.4645 18.7535C18.3622 20.2047 18.232 22 14.9855 22Z" fill="white"/>
<path d="M13.5436 16.8837H10.4459C10.0645 16.8837 9.74826 16.5674 9.74826 16.186C9.74826 15.8047 10.0645 15.4884 10.4459 15.4884H13.5436C13.925 15.4884 14.2413 15.8047 14.2413 16.186C14.2413 16.5674 13.925 16.8837 13.5436 16.8837Z" fill="white"/>
<path d="M14.325 13.1628H9.67384C9.29245 13.1628 8.97617 12.8465 8.97617 12.4651C8.97617 12.0837 9.29245 11.7674 9.67384 11.7674H14.325C14.7064 11.7674 15.0227 12.0837 15.0227 12.4651C15.0227 12.8465 14.7064 13.1628 14.325 13.1628Z" fill="white"/>
</svg>
