<svg width="80" height="80" viewBox="0 0 80 80" fill="none" xmlns="http://www.w3.org/2000/svg">
    <path
        d="M62.1404 12.6406H56.4713C56.0114 11.8473 55.1528 11.3126 54.1717 11.3126H46.0698C45.4527 8.2853 42.7692 6 39.5624 6C36.3555 6 33.672 8.2853 33.0551 11.3126H24.9531C23.972 11.3126 23.1134 11.8473 22.6534 12.6406H16.9844C14.7874 12.6406 13 14.428 13 16.625V70.0158C13 72.2126 14.7874 74 16.9844 74H62.1404C64.3374 74 66.1247 72.2126 66.1247 70.0158V16.625C66.1247 14.428 64.3374 12.6406 62.1404 12.6406ZM34.2498 13.9689C34.9832 13.9689 35.5779 13.3741 35.5779 12.6407C35.5779 10.4436 37.3653 8.65624 39.5624 8.65624C41.7595 8.65624 43.547 10.4436 43.547 12.6407C43.547 13.3741 44.1417 13.9689 44.8751 13.9689H54.1717V19.2812H24.9531L24.9528 13.9689H34.2498ZM63.4685 70.0158C63.4685 70.7481 62.8727 71.3438 62.1404 71.3438H16.9844C16.252 71.3438 15.6562 70.7481 15.6562 70.0158V16.625C15.6562 15.8927 16.252 15.2969 16.9844 15.2969H22.2968V17.9531H19.6407C18.9073 17.9531 18.3126 18.5478 18.3126 19.2812V67.3594C18.3126 68.0928 18.9073 68.6875 19.6407 68.6875H33.5854C34.3188 68.6875 34.9136 68.0928 34.9136 67.3594C34.9136 66.626 34.3188 66.0313 33.5854 66.0313H20.9688V20.6093H22.6533C23.1132 21.4028 23.9719 21.9375 24.9531 21.9375H54.1717C55.1529 21.9375 56.0115 21.4028 56.4715 20.6093H58.156V66.0313H45.5385C44.8051 66.0313 44.2104 66.626 44.2104 67.3594C44.2104 68.0928 44.8051 68.6875 45.5385 68.6875H59.4842C60.2175 68.6875 60.8123 68.0928 60.8123 67.3594V19.2812C60.8123 18.5478 60.2175 17.9531 59.4842 17.9531H56.8279V15.2969H62.1404C62.8727 15.2969 63.4685 15.8927 63.4685 16.625V70.0158Z"
        fill="#626364" />
    <path
        d="M39.5629 13.9689C40.2963 13.9689 40.891 13.3741 40.891 12.6408C40.891 11.9074 40.2963 11.3126 39.5629 11.3126H39.5618C38.8285 11.3126 38.2343 11.9074 38.2343 12.6408C38.2343 13.3741 38.8294 13.9689 39.5629 13.9689Z"
        fill="#626364" />
    <path
        d="M40.0858 45.9582C39.8608 45.5082 39.401 45.2242 38.8979 45.2242H34.9136C34.1802 45.2242 33.5854 45.8189 33.5854 46.5523C33.5854 47.2857 34.1802 47.8804 34.9136 47.8804H36.2417L33.8511 51.0679C33.5493 51.4703 33.5006 52.0088 33.7257 52.4589C33.9507 52.9088 34.4105 53.1929 34.9136 53.1929H38.8979C39.6313 53.1929 40.2261 52.5982 40.2261 51.8648C40.2261 51.1314 39.6313 50.5367 38.8979 50.5367H37.5698L39.9604 47.3492C40.2622 46.9466 40.3109 46.4083 40.0858 45.9582Z"
        fill="#626364" />
    <path
        d="M44.3434 38.5833H41.6871L45.4059 33.625C45.7076 33.2226 45.7564 32.6842 45.5312 32.2341C45.3063 31.7841 44.8465 31.5 44.3434 31.5H39.0309C38.2975 31.5 37.7027 32.0947 37.7027 32.8281C37.7027 33.5615 38.2975 34.1563 39.0309 34.1563H41.6871L37.9684 39.1146C37.6666 39.517 37.6179 40.0554 37.843 40.5054C38.068 40.9555 38.5278 41.2396 39.0309 41.2396H44.3434C45.0767 41.2396 45.6715 40.6448 45.6715 39.9114C45.6715 39.178 45.0767 38.5833 44.3434 38.5833Z"
        fill="#626364" />
    <path
        d="M39.5625 66.0313H39.5614C38.8281 66.0313 38.2339 66.626 38.2339 67.3594C38.2339 68.0928 38.829 68.6875 39.5625 68.6875C40.296 68.6875 40.8906 68.0928 40.8906 67.3594C40.8906 66.626 40.2959 66.0313 39.5625 66.0313Z"
        fill="#626364" />
</svg>
