<svg width="16" height="16" viewBox="0 0 16 16" fill="none" xmlns="http://www.w3.org/2000/svg">
<path d="M13.6621 11.5214C14.299 10.4995 14.6673 9.29284 14.6673 7.99966C14.6673 4.31752 11.6828 1.33325 8.00065 1.33325C4.31852 1.33325 1.33398 4.31752 1.33398 7.99966C1.33398 11.6829 4.31852 14.6666 8.00065 14.6666C9.29385 14.6666 10.5008 14.2981 11.5229 13.6609L14.4449 14.4437L13.6621 11.5214ZM8.00065 4.44231C8.46279 4.44231 8.83771 4.81698 8.83771 5.27937C8.83771 5.74151 8.46305 6.11643 8.00065 6.11643C7.53826 6.11643 7.16359 5.74177 7.16359 5.27937C7.16359 4.81698 7.53852 4.44231 8.00065 4.44231ZM9.46544 11.5578H6.53586V10.3021H7.16359V7.79086H6.53586V6.53539H8.83774V7.79086V10.3021H9.46547V11.5578H9.46544Z" fill="#626364"/>
</svg>
