<svg width="128" height="128" viewBox="0 0 128 128" fill="none" xmlns="http://www.w3.org/2000/svg">
<path d="M71.3853 104.847C71.3853 109.053 67.976 112.462 63.7699 112.462C59.5638 112.462 56.1545 109.053 56.1545 104.847C56.1545 100.642 59.5638 97.2315 63.7699 97.2315C67.976 97.2315 71.3853 100.642 71.3853 104.847ZM48.403 26.2664C53.4727 25.1206 58.72 24.5392 64.0016 24.5392C83.5412 24.5392 101.683 32.4593 115.086 46.84C115.995 47.8154 117.227 48.3084 118.463 48.3084C119.59 48.3084 120.719 47.8983 121.609 47.0699C123.474 45.3319 123.576 42.4112 121.839 40.5461C106.67 24.2715 86.1301 15.3084 63.9998 15.3084C58.0367 15.3084 52.1044 15.9656 46.3685 17.2628C43.8814 17.8244 42.3219 20.2952 42.8835 22.7814C43.4451 25.2685 45.9169 26.8289 48.403 26.2664ZM68.4592 46.6904C68.0058 49.1991 69.6707 51.5996 72.1794 52.0539C81.915 53.8144 90.961 58.6741 98.3393 66.1092C99.2416 67.0179 100.429 67.4731 101.615 67.4731C102.791 67.4731 103.967 67.0269 104.867 66.1336C106.676 64.3379 106.687 61.4154 104.891 59.6062C96.1722 50.8217 85.4288 45.0696 73.8219 42.9701C71.3141 42.5158 68.9126 44.1825 68.4592 46.6904ZM121.725 115.199L12.8024 6.27599C11.0004 4.47311 8.07797 4.47311 6.27599 6.27599C4.47311 8.07797 4.47311 11.0005 6.27599 12.8033L21.294 27.8214C15.8123 31.3748 10.7372 35.6387 6.16331 40.547C4.42533 42.4112 4.5281 45.3319 6.39228 47.0699C7.282 47.8983 8.4115 48.3084 9.53831 48.3084C10.7742 48.3084 12.0065 47.8154 12.916 46.84C17.4358 41.9902 22.4974 37.8535 27.9872 34.5146L40.702 47.2294C34.2648 50.1988 28.2721 54.4031 23.1086 59.6071C21.3129 61.4163 21.3246 64.3388 23.1338 66.1345C24.0344 67.0278 25.209 67.4731 26.3844 67.4731C27.5716 67.4731 28.7588 67.0179 29.6612 66.1092C34.9779 60.7501 41.0572 56.782 47.7549 54.2823L62.5746 69.102C55.0115 69.4112 46.894 73.0359 41.1536 78.7222C39.3436 80.5161 39.33 83.4385 41.1239 85.2495C42.0262 86.16 43.2143 86.6161 44.4024 86.6161C45.5761 86.6161 46.7507 86.1717 47.6512 85.2802C51.9259 81.0452 58.1927 78.3084 63.6185 78.3084H63.6203H63.9547H63.9574C67.4406 78.3084 71.3132 79.4271 74.8621 81.4581C74.9072 81.4833 74.9541 81.5032 75.0001 81.5275L115.199 121.726C116.099 122.627 117.281 123.078 118.462 123.078C119.643 123.078 120.825 122.627 121.725 121.726C123.528 119.924 123.528 117.001 121.725 115.199Z" fill="#A5A6A7"/>
</svg>
