<svg width="16" height="16" viewBox="0 0 16 16" fill="none" xmlns="http://www.w3.org/2000/svg">
<path d="M2.37953 4.31239C2.51056 3.37972 2.93707 3.02773 3.82862 3.02773H11.8629C11.9951 3.03368 12.12 3.09044 12.2114 3.18617C12.3028 3.2819 12.3538 3.40922 12.3536 3.54159V4.31239H2.37953ZM13.3813 4.33551V3.54159C13.3814 3.13671 13.2222 2.74807 12.938 2.45962C12.6539 2.17117 12.2677 2.00607 11.8629 2H3.82862C1.59332 2 1.33896 3.82165 1.30555 4.76716C1.3044 4.77654 1.3044 4.78603 1.30555 4.79542V4.82625V13.0481C1.30555 13.4569 1.46797 13.849 1.75708 14.1381C2.04618 14.4272 2.43829 14.5897 2.84715 14.5897H13.1244C13.5333 14.5897 13.9254 14.4272 14.2145 14.1381C14.5036 13.849 14.666 13.4569 14.666 13.0481V5.85398C14.6656 5.48994 14.5365 5.13777 14.3013 4.85985C14.0662 4.58193 13.7403 4.39618 13.3813 4.33551ZM11.7113 10.7357C11.4826 10.7357 11.2591 10.6679 11.0689 10.5408C10.8788 10.4138 10.7306 10.2332 10.6431 10.0219C10.5556 9.81068 10.5327 9.57821 10.5773 9.35393C10.6219 9.12965 10.732 8.92363 10.8937 8.76194C11.0554 8.60024 11.2615 8.49012 11.4857 8.44551C11.71 8.4009 11.9425 8.4238 12.1537 8.51131C12.365 8.59882 12.5456 8.74701 12.6726 8.93714C12.7997 9.12728 12.8675 9.35082 12.8675 9.57949C12.8678 9.73142 12.8382 9.88192 12.7802 10.0223C12.7222 10.1628 12.637 10.2904 12.5296 10.3978C12.4222 10.5052 12.2946 10.5904 12.1541 10.6484C12.0137 10.7063 11.8632 10.736 11.7113 10.7357Z" fill="#626364"/>
</svg>
