<svg width="14" height="14" viewBox="0 0 14 14" fill="none" xmlns="http://www.w3.org/2000/svg">
<path d="M7.00002 1.16602C5.8463 1.16602 4.71848 1.50813 3.7592 2.14911C2.79991 2.79008 2.05224 3.70113 1.61073 4.76703C1.16921 5.83293 1.0537 7.00582 1.27878 8.13737C1.50386 9.26893 2.05943 10.3083 2.87523 11.1241C3.69104 11.9399 4.73044 12.4955 5.862 12.7206C6.99355 12.9457 8.16644 12.8302 9.23234 12.3886C10.2982 11.9471 11.2093 11.1995 11.8503 10.2402C12.4912 9.28089 12.8334 8.15307 12.8334 6.99935C12.8315 5.45281 12.2164 3.97014 11.1228 2.87657C10.0292 1.78301 8.54656 1.16784 7.00002 1.16602ZM9.24957 8.49957C9.30022 8.54849 9.34062 8.60701 9.36841 8.67171C9.3962 8.73641 9.41083 8.80599 9.41144 8.87641C9.41205 8.94682 9.39864 9.01665 9.37197 9.08182C9.34531 9.14699 9.30593 9.2062 9.25614 9.256C9.20635 9.30579 9.14714 9.34516 9.08197 9.37183C9.01679 9.39849 8.94696 9.41191 8.87655 9.4113C8.80614 9.41069 8.73655 9.39606 8.67185 9.36826C8.60715 9.34047 8.54864 9.30007 8.49972 9.24942L7.00002 7.7492L5.50033 9.24942C5.40031 9.34602 5.26635 9.39947 5.12731 9.39826C4.98827 9.39706 4.85526 9.34128 4.75694 9.24296C4.65861 9.14464 4.60284 9.01163 4.60163 8.87259C4.60043 8.73355 4.65388 8.59959 4.75048 8.49957L6.25017 6.99935L4.75048 5.49912C4.69983 5.4502 4.65943 5.39169 4.63164 5.32699C4.60384 5.26229 4.58921 5.1927 4.5886 5.12229C4.58799 5.05187 4.60141 4.98204 4.62807 4.91687C4.65474 4.8517 4.69411 4.79249 4.7439 4.7427C4.7937 4.69291 4.8529 4.65353 4.91808 4.62687C4.98325 4.6002 5.05308 4.58679 5.12349 4.5874C5.19391 4.58801 5.26349 4.60264 5.32819 4.63043C5.39289 4.65822 5.45141 4.69862 5.50033 4.74927L7.00002 6.2495L8.49972 4.74927C8.54864 4.69862 8.60715 4.65822 8.67185 4.63043C8.73655 4.60264 8.80614 4.58801 8.87655 4.5874C8.94696 4.58679 9.01679 4.6002 9.08197 4.62687C9.14714 4.65353 9.20635 4.69291 9.25614 4.7427C9.30593 4.79249 9.34531 4.8517 9.37197 4.91687C9.39864 4.98204 9.41205 5.05187 9.41144 5.12229C9.41083 5.1927 9.3962 5.26229 9.36841 5.32699C9.34062 5.39169 9.30022 5.4502 9.24957 5.49912L7.74987 6.99935L9.24957 8.49957Z" fill="#626364"/>
</svg>
