<svg width="16" height="16" viewBox="0 0 16 16" fill="none" xmlns="http://www.w3.org/2000/svg">
<path d="M7.6 15.167H5.06667C2.14 15.167 0.833332 13.8603 0.833332 10.9337V8.40033C0.833332 5.47366 2.14 4.16699 5.06667 4.16699H7.06667C7.34 4.16699 7.56667 4.39366 7.56667 4.66699C7.56667 4.94033 7.34 5.16699 7.06667 5.16699H5.06667C2.68 5.16699 1.83333 6.01366 1.83333 8.40033V10.9337C1.83333 13.3203 2.68 14.167 5.06667 14.167H7.6C9.98667 14.167 10.8333 13.3203 10.8333 10.9337V8.93366C10.8333 8.66033 11.06 8.43366 11.3333 8.43366C11.6067 8.43366 11.8333 8.66033 11.8333 8.93366V10.9337C11.8333 13.8603 10.5267 15.167 7.6 15.167Z" fill="#FBAB00"/>
<path d="M11.3333 9.43365H9.2C7.32667 9.43365 6.56667 8.67365 6.56667 6.80032V4.66698C6.56667 4.46698 6.68667 4.28032 6.87333 4.20698C7.06 4.12698 7.27333 4.17365 7.42 4.31365L11.6867 8.58032C11.8267 8.72032 11.8733 8.94032 11.7933 9.12699C11.72 9.31365 11.5333 9.43365 11.3333 9.43365ZM7.56667 5.87365V6.80032C7.56667 8.12699 7.87333 8.43365 9.2 8.43365H10.1267L7.56667 5.87365Z" fill="#FBAB00"/>
<path d="M10.4 1.83301H7.73333C7.46 1.83301 7.23333 1.60634 7.23333 1.33301C7.23333 1.05967 7.46 0.833008 7.73333 0.833008H10.4C10.6733 0.833008 10.9 1.05967 10.9 1.33301C10.9 1.60634 10.6733 1.83301 10.4 1.83301Z" fill="#FBAB00"/>
<path d="M4.66667 3.83301C4.39333 3.83301 4.16667 3.60634 4.16667 3.33301C4.16667 1.95301 5.28667 0.833008 6.66667 0.833008H8.41334C8.68667 0.833008 8.91334 1.05967 8.91334 1.33301C8.91334 1.60634 8.68667 1.83301 8.41334 1.83301H6.66667C5.84 1.83301 5.16667 2.50634 5.16667 3.33301C5.16667 3.60634 4.94 3.83301 4.66667 3.83301Z" fill="#FBAB00"/>
<path d="M12.7933 11.833C12.52 11.833 12.2933 11.6063 12.2933 11.333C12.2933 11.0597 12.52 10.833 12.7933 10.833C13.5533 10.833 14.1667 10.213 14.1667 9.45967V5.33301C14.1667 5.05967 14.3933 4.83301 14.6667 4.83301C14.94 4.83301 15.1667 5.05967 15.1667 5.33301V9.45967C15.1667 10.7663 14.1 11.833 12.7933 11.833Z" fill="#FBAB00"/>
<path d="M14.6667 5.833H12.6667C10.8933 5.833 10.1667 5.10633 10.1667 3.333V1.333C10.1667 1.133 10.2867 0.946334 10.4733 0.873C10.66 0.793 10.8733 0.839667 11.02 0.979667L15.02 4.97967C15.16 5.11967 15.2067 5.33967 15.1267 5.52633C15.0533 5.713 14.8667 5.833 14.6667 5.833ZM11.1667 2.53967V3.333C11.1667 4.553 11.4467 4.833 12.6667 4.833H13.46L11.1667 2.53967Z" fill="#FBAB00"/>
</svg>
