<svg width="24" height="24" viewBox="0 0 24 24" fill="none" xmlns="http://www.w3.org/2000/svg">
    <path fill-rule="evenodd" clip-rule="evenodd"
          d="M5.244 4.45148C4.64797 5.09335 4.32577 6.06044 4.32577 7.34884V16.6512C4.32577 17.9396 4.64797 18.9066 5.244 19.5485C5.83133 20.181 6.78433 20.6047 8.27926 20.6047H15.7211C17.216 20.6047 18.169 20.181 18.7564 19.5485C19.3524 18.9066 19.6746 17.9396 19.6746 16.6512V7.34884C19.6746 6.06044 19.3524 5.09335 18.7564 4.45148C18.169 3.81896 17.216 3.39535 15.7211 3.39535H8.27926C6.78433 3.39535 5.83133 3.81896 5.244 4.45148ZM4.22149 3.50201C5.14579 2.50662 6.51837 2 8.27926 2H15.7211C17.482 2 18.8546 2.50662 19.7789 3.50201C20.6945 4.48804 21.07 5.84654 21.07 7.34884V16.6512C21.07 18.1535 20.6945 19.512 19.7789 20.498C18.8546 21.4934 17.482 22 15.7211 22H8.27926C6.51837 22 5.14579 21.4934 4.22149 20.498C3.30589 19.512 2.93042 18.1535 2.93042 16.6512V7.34884C2.93042 5.84654 3.30589 4.48804 4.22149 3.50201Z"
          fill="#626364"/>
    <path fill-rule="evenodd" clip-rule="evenodd"
          d="M8.0467 2.69767C8.0467 2.31236 8.35906 2 8.74437 2H15.256C15.6413 2 15.9537 2.31236 15.9537 2.69767V10.0093C15.9537 11.042 14.7386 11.5343 14.0061 10.8704L14.0015 10.8663L12.0002 9.02021L9.99431 10.8705C9.2618 11.5343 8.0467 11.042 8.0467 10.0093V2.69767ZM9.44205 3.39535V9.48156L11.2082 7.85246C11.6528 7.43526 12.3476 7.43526 12.7922 7.85246L14.5583 9.48156V3.39535H9.44205Z"
          fill="#626364"/>
    <path fill-rule="evenodd" clip-rule="evenodd"
          d="M12.4653 13.8605C12.4653 13.4752 12.7777 13.1628 13.163 13.1628H17.1165C17.5018 13.1628 17.8141 13.4752 17.8141 13.8605C17.8141 14.2458 17.5018 14.5581 17.1165 14.5581H13.163C12.7777 14.5581 12.4653 14.2458 12.4653 13.8605Z"
          fill="#626364"/>
    <path fill-rule="evenodd" clip-rule="evenodd"
          d="M8.51182 17.5814C8.51182 17.1961 8.82417 16.8837 9.20949 16.8837H17.1165C17.5018 16.8837 17.8141 17.1961 17.8141 17.5814C17.8141 17.9667 17.5018 18.2791 17.1165 18.2791H9.20949C8.82417 18.2791 8.51182 17.9667 8.51182 17.5814Z"
          fill="#626364"/>
</svg>
