<svg width="24" height="24" viewBox="0 0 24 24" fill="none" xmlns="http://www.w3.org/2000/svg">
    <path d="M12 14.436C11.6369 14.436 11.3357 14.1348 11.3357 13.7717V9.34252C11.3357 8.97933 11.6369 8.67815 12 8.67815C12.3632 8.67815 12.6644 8.97933 12.6644 9.34252V13.7717C12.6644 14.1348 12.3632 14.436 12 14.436Z"
          fill="#E2441D"/>
    <path d="M12 17.315C11.9469 17.315 11.8849 17.3061 11.8229 17.2972C11.7697 17.2884 11.7166 17.2707 11.6634 17.2441C11.6103 17.2264 11.5571 17.1998 11.504 17.1644C11.4597 17.1289 11.4154 17.0935 11.3711 17.0581C11.2117 16.8898 11.1142 16.6594 11.1142 16.4291C11.1142 16.1988 11.2117 15.9685 11.3711 15.8002C11.4154 15.7648 11.4597 15.7293 11.504 15.6939C11.5571 15.6585 11.6103 15.6319 11.6634 15.6142C11.7166 15.5876 11.7697 15.5699 11.8229 15.561C11.938 15.5344 12.062 15.5344 12.1683 15.561C12.2304 15.5699 12.2835 15.5876 12.3367 15.6142C12.3898 15.6319 12.443 15.6585 12.4961 15.6939C12.5404 15.7293 12.5847 15.7648 12.629 15.8002C12.7884 15.9685 12.8859 16.1988 12.8859 16.4291C12.8859 16.6594 12.7884 16.8898 12.629 17.0581C12.5847 17.0935 12.5404 17.1289 12.4961 17.1644C12.443 17.1998 12.3898 17.2264 12.3367 17.2441C12.2835 17.2707 12.2304 17.2884 12.1683 17.2972C12.1152 17.3061 12.0532 17.315 12 17.315Z"
          fill="#E2441D"/>
    <path d="M17.3681 21H6.63193C4.90457 21 3.58469 20.3711 2.91146 19.2372C2.24709 18.1033 2.33567 16.6417 3.17721 15.127L8.54532 5.47146C9.43114 3.87697 10.6536 3 12 3C13.3465 3 14.5689 3.87697 15.4548 5.47146L20.8229 15.1358C21.6644 16.6506 21.7619 18.1033 21.0886 19.2461C20.4154 20.3711 19.0955 21 17.3681 21ZM12 4.32874C11.1674 4.32874 10.3524 4.96654 9.70575 6.11811L4.3465 15.7825C3.74414 16.8632 3.64669 17.8553 4.06303 18.5728C4.47937 19.2904 5.40063 19.6801 6.64079 19.6801H17.377C18.6172 19.6801 19.5296 19.2904 19.9548 18.5728C20.38 17.8553 20.2737 16.872 19.6713 15.7825L14.2943 6.11811C13.6477 4.96654 12.8327 4.32874 12 4.32874Z"
          fill="#E2441D"/>
</svg>
