<svg width="24" height="24" viewBox="0 0 24 24" fill="none" xmlns="http://www.w3.org/2000/svg">
<path d="M6.12869 5.9391H2.70588C2.31598 5.9391 2 5.62291 2 5.23322C2 4.84354 2.31598 4.52734 2.70588 4.52734H6.12869C6.51859 4.52734 6.83457 4.84354 6.83457 5.23322C6.83457 5.62291 6.51859 5.9391 6.12869 5.9391Z" fill="white"/>
<path d="M8.65612 8.46659C6.87324 8.46659 5.42285 7.0162 5.42285 5.23348C5.42285 3.45039 6.87324 2 8.65612 2C10.439 2 11.8894 3.45039 11.8894 5.23348C11.8894 7.01625 10.439 8.46659 8.65612 8.46659ZM8.65612 3.41181C7.65171 3.41181 6.83457 4.22881 6.83457 5.23322C6.83457 6.23763 7.65171 7.05479 8.65612 7.05479C9.66053 7.05479 10.4776 6.23789 10.4776 5.23348C10.4776 4.22907 9.66053 3.41181 8.65612 3.41181Z" fill="white"/>
<path d="M21.294 5.9391H13.744C13.3541 5.9391 13.0381 5.62291 13.0381 5.23322C13.0381 4.84354 13.3541 4.52734 13.744 4.52734H21.2939C21.6838 4.52734 21.9998 4.84354 21.9998 5.23322C21.9998 5.62291 21.6839 5.9391 21.294 5.9391Z" fill="white"/>
<path d="M16.1337 15.2328C14.3507 15.2328 12.9004 13.7824 12.9004 11.9997C12.9004 10.217 14.3508 8.7666 16.1337 8.7666C17.9165 8.7666 19.3669 10.217 19.3669 11.9997C19.3669 13.7824 17.9166 15.2328 16.1337 15.2328ZM16.1337 10.1784C15.1293 10.1784 14.3121 10.9953 14.3121 11.9997C14.3121 13.0041 15.1293 13.821 16.1337 13.821C17.1381 13.821 17.9552 13.0041 17.9552 11.9997C17.9552 10.9953 17.1381 10.1784 16.1337 10.1784Z" fill="white"/>
<path d="M11.0458 12.7057H2.70588C2.31598 12.7057 2 12.3895 2 11.9998C2 11.6101 2.31598 11.2939 2.70588 11.2939H11.0458C11.4357 11.2939 11.7517 11.6101 11.7517 11.9998C11.7517 12.3895 11.4357 12.7057 11.0458 12.7057Z" fill="white"/>
<path d="M21.2941 12.7057H18.661C18.2711 12.7057 17.9552 12.3894 17.9552 11.9997C17.9552 11.61 18.2711 11.2939 18.661 11.2939H21.2941C21.6839 11.2939 21.9999 11.6101 21.9999 11.9998C21.9999 12.3895 21.6839 12.7057 21.2941 12.7057Z" fill="white"/>
<path d="M7.86657 21.4666C6.08369 21.4666 4.6333 20.0162 4.6333 18.2331C4.6333 16.4504 6.08369 15 7.86657 15C9.64945 15 11.0998 16.4504 11.0998 18.2331C11.0998 20.0162 9.64945 21.4666 7.86657 21.4666ZM7.86657 16.4118C6.86216 16.4118 6.04505 17.2287 6.04505 18.2331C6.04505 19.2375 6.86216 20.0548 7.86657 20.0548C8.87098 20.0548 9.68808 19.2375 9.68808 18.2331C9.68808 17.2287 8.87098 16.4118 7.86657 16.4118Z" fill="white"/>
<path d="M21.2943 18.9391H12.9544C12.5645 18.9391 12.2485 18.6229 12.2485 18.2332C12.2485 17.8435 12.5645 17.5273 12.9544 17.5273H21.2943C21.6842 17.5273 22.0002 17.8435 22.0002 18.2332C22.0002 18.6229 21.6842 18.9391 21.2943 18.9391Z" fill="white"/>
<path d="M5.33897 18.9391H2.70588C2.31598 18.9391 2 18.623 2 18.2332C2 17.8435 2.31598 17.5273 2.70588 17.5273H5.33897C5.72887 17.5273 6.04505 17.8434 6.04505 18.2331C6.04505 18.6229 5.72887 18.9391 5.33897 18.9391Z" fill="white"/>
</svg>
