<svg width="24" height="24" viewBox="0 0 24 24" fill="none" xmlns="http://www.w3.org/2000/svg">
    <path d="M21.86 10.815C21.7924 10.4087 21.394 10.132 20.9702 10.1968C20.5464 10.2616 20.2577 10.6435 20.3253 11.0498C20.3261 11.0543 20.3268 11.0587 20.3276 11.0631C21.119 15.529 17.9842 19.7643 13.3259 20.523C8.66761 21.2816 4.24986 18.2763 3.45854 13.8104C2.66721 9.34446 5.80205 5.10915 10.4603 4.35051C13.325 3.88397 16.241 4.84332 18.2032 6.89798L15.7608 7.99754C15.3536 8.12744 15.1334 8.54919 15.2688 8.9396C15.4043 9.33001 15.8444 9.54145 16.2516 9.41159L19.9143 7.92159C20.2317 7.82023 20.4458 7.53541 20.4458 7.21462V2.99986C20.4458 2.58842 20.0979 2.25488 19.6687 2.25488C19.2396 2.25488 18.8917 2.58842 18.8917 2.99986V5.46617C14.8899 1.81717 8.56025 1.96921 4.75407 5.80572C0.947886 9.64224 1.10642 15.7105 5.10825 19.3595C9.11008 23.0085 15.4397 22.8565 19.2459 19.0199C21.4163 16.8322 22.3849 13.7921 21.86 10.815Z"
          fill="#FBAB00"/>
    <path fill-rule="evenodd" clip-rule="evenodd"
          d="M10.75 7.99985C11.1642 7.99985 11.5 8.33564 11.5 8.74985V13.4998H14.75C15.1642 13.4998 15.5 13.8356 15.5 14.2498C15.5 14.6641 15.1642 14.9998 14.75 14.9998H10.75C10.3358 14.9998 10 14.6641 10 14.2498V8.74985C10 8.33564 10.3358 7.99985 10.75 7.99985Z"
          fill="#FBAB00"/>
</svg>
