<svg width="24" height="24" viewBox="0 0 24 24" fill="none" xmlns="http://www.w3.org/2000/svg">
<path d="M15.0904 20.6695C15.2804 20.6695 15.4704 20.5995 15.6204 20.4495C15.9104 20.1595 15.9104 19.6795 15.6204 19.3895L9.10039 12.8695C8.62039 12.3895 8.62039 11.6095 9.10039 11.1295L15.6204 4.60953C15.9104 4.31953 15.9104 3.83953 15.6204 3.54953C15.3304 3.25953 14.8504 3.25953 14.5604 3.54953L8.04039 10.0695C7.53039 10.5795 7.24039 11.2695 7.24039 11.9995C7.24039 12.7295 7.52039 13.4195 8.04039 13.9295L14.5604 20.4495C14.7104 20.5895 14.9004 20.6695 15.0904 20.6695Z" fill="white"/>
</svg>
