<svg width="24" height="24" viewBox="0 0 24 24" fill="none" xmlns="http://www.w3.org/2000/svg">
<path fill-rule="evenodd" clip-rule="evenodd" d="M8.33747 10.5349C7.90791 10.1163 7.19691 10.1163 6.76735 10.5349C6.33779 10.9679 6.33779 11.6464 6.76735 12.065L11.2111 16.3953C11.3148 16.4964 11.4333 16.5686 11.5666 16.6263C11.7147 16.684 11.848 16.7129 11.9961 16.7129C12.1443 16.7129 12.2924 16.684 12.4257 16.6263C12.559 16.5686 12.6775 16.4964 12.7812 16.3953L17.2249 12.065C17.6545 11.6464 17.6545 10.9535 17.2249 10.5349C16.7954 10.1163 16.0844 10.1163 15.6548 10.5349L13.1071 13.0176V4.0826C13.1071 3.49078 12.6035 3 11.9961 3C11.3888 3 10.8852 3.49078 10.8852 4.0826V13.0176L8.33747 10.5349ZM11.9961 21C15.1364 21 18.2618 20.5092 21.2391 19.5421C21.8168 19.3545 22.1278 18.7482 21.9501 18.1708C21.7575 17.6079 21.1206 17.3047 20.5429 17.4924C15.0327 19.2823 8.97441 19.2823 3.46418 17.4924C2.87168 17.2903 2.24956 17.6079 2.057 18.1708C1.86444 18.7338 2.1755 19.3545 2.75318 19.5421C5.73048 20.5092 8.85591 21 11.9961 21Z" fill="#626364"/>
</svg>
