<svg width="24" height="24" viewBox="0 0 24 24" fill="none" xmlns="http://www.w3.org/2000/svg">
<path fill-rule="evenodd" clip-rule="evenodd" d="M11.9961 21C15.1364 21 18.2618 20.5092 21.2391 19.5421C21.8168 19.3545 22.1278 18.7482 21.9501 18.1708C21.7575 17.6079 21.1206 17.3047 20.5429 17.4924C15.0327 19.2823 8.97441 19.2823 3.46418 17.4924C2.87168 17.2903 2.24956 17.6079 2.057 18.1708C1.86444 18.7338 2.1755 19.3545 2.75318 19.5421C5.73048 20.5092 8.85591 21 11.9961 21Z" fill="#626364"/>
<path d="M15.6551 9.17803C16.0846 9.59663 16.7956 9.59663 17.2252 9.17803C17.6548 8.74499 17.6548 8.06656 17.2252 7.64796L12.7815 3.31756C12.6778 3.21652 12.5593 3.14435 12.426 3.08661C12.2778 3.02887 12.1445 3 11.9964 3C11.8483 3 11.7002 3.02887 11.5668 3.08661C11.4335 3.14435 11.315 3.21652 11.2113 3.31756L6.76761 7.64796C6.33805 8.06656 6.33805 8.75942 6.76761 9.17803C7.19718 9.59663 7.90817 9.59663 8.33773 9.17803L10.8855 6.69527L10.8855 15.6303C10.8855 16.2221 11.3891 16.7129 11.9964 16.7129C12.6037 16.7129 13.1073 16.2221 13.1073 15.6303L13.1073 6.69527L15.6551 9.17803Z" fill="#626364"/>
</svg>
