<svg width="24" height="24" viewBox="0 0 24 24" fill="none" xmlns="http://www.w3.org/2000/svg">
    <path fill-rule="evenodd" clip-rule="evenodd"
          d="M13.8749 14.2158C13.4493 13.7901 12.7448 13.7901 12.3192 14.2158C11.8936 14.6563 11.8936 15.3464 12.3192 15.7722L16.7221 20.177C16.8249 20.2798 16.9423 20.3532 17.0744 20.4119C17.2211 20.4706 17.3532 20.5 17.5 20.5C17.6468 20.5 17.7935 20.4706 17.9256 20.4119C18.0577 20.3532 18.1751 20.2798 18.2779 20.177L22.6808 15.7722C23.1064 15.3464 23.1064 14.6416 22.6808 14.2158C22.2552 13.7901 21.5507 13.7901 21.1251 14.2158L18.6007 16.7413V5.6012C18.6007 4.99921 18.1017 4.5 17.5 4.5C16.8983 4.5 16.3993 4.99921 16.3993 5.6012V16.7413L13.8749 14.2158Z"
          fill="#626364"/>
    <path fill-rule="evenodd" clip-rule="evenodd"
          d="M2.87492 9.78415C2.4493 10.2099 1.74483 10.2099 1.31921 9.78415C0.893596 9.34368 0.893596 8.65359 1.31921 8.2278L5.72215 3.82302C5.82488 3.72024 5.94229 3.64683 6.07438 3.5881C6.22115 3.52937 6.35324 3.5 6.5 3.5C6.64676 3.5 6.79353 3.52937 6.92562 3.5881C7.0577 3.64683 7.17512 3.72024 7.27785 3.82302L11.6808 8.2278C12.1064 8.65359 12.1064 9.35836 11.6808 9.78415C11.2552 10.2099 10.5507 10.2099 10.1251 9.78415L7.60073 7.25875V18.3988C7.60073 19.0008 7.10174 19.5 6.5 19.5C5.89826 19.5 5.39927 19.0008 5.39927 18.3988V7.25875L2.87492 9.78415Z"
          fill="#626364"/>
</svg>
