<svg width="28" height="28" viewBox="0 0 28 28" fill="none" xmlns="http://www.w3.org/2000/svg">
<path fill-rule="evenodd" clip-rule="evenodd" d="M20.1785 4C22.869 4 25.05 6.18105 25.05 8.87151V15.025C25.05 15.4498 24.7056 15.7942 24.2808 15.7942C23.856 15.7942 23.5116 15.4498 23.5116 15.025V8.87151C23.5116 7.03067 22.0193 5.53837 20.1785 5.53837H7.87151C6.03066 5.53837 4.53837 7.03067 4.53837 8.87151V10.1534H6.84593C8.96998 10.1534 10.6919 11.8753 10.6919 13.9993C10.6919 16.1234 8.96998 17.8452 6.84593 17.8452H4.53837V19.1273C4.53837 20.9681 6.03066 22.4605 7.87151 22.4605H13.4738C13.8985 22.4605 14.2429 22.8049 14.2429 23.2297C14.2429 23.6544 13.8985 23.9988 13.4738 23.9988H7.87151C5.18105 23.9988 3 21.8178 3 19.1273V17.0761V10.9226V8.87151C3 6.18105 5.18105 4 7.87151 4H20.1785ZM4.53837 16.3069H6.84593C8.12036 16.3069 9.15349 15.2737 9.15349 13.9993C9.15349 12.7249 8.12036 11.6918 6.84593 11.6918H4.53837V16.3069Z" fill="white"/>
<path d="M17.9751 16.7566C18.2573 16.4744 18.7145 16.4744 18.9968 16.7566C19.279 17.0388 19.279 17.4961 18.9967 17.7784L18.362 18.4131H25.3266C25.7257 18.4131 26.0492 18.7366 26.0492 19.1356C26.0492 19.5346 25.7257 19.8581 25.3266 19.8581H16.6178C15.9755 19.8581 15.6526 19.079 16.1069 18.6247L17.9751 16.7566Z" fill="white"/>
<path d="M23.5825 23.3276H16.6179C16.2188 23.3276 15.8954 23.004 15.8954 22.605C15.8954 22.2059 16.2189 21.8824 16.6179 21.8824H25.3268C25.969 21.8824 26.292 22.6615 25.8376 23.1159L23.9695 24.984C23.6873 25.2662 23.23 25.2662 22.9478 24.984C22.6656 24.7017 22.6656 24.2445 22.9478 23.9623L23.5825 23.3276Z" fill="white"/>
</svg>
