<svg width="24" height="24" viewBox="0 0 24 24" fill="none" xmlns="http://www.w3.org/2000/svg">
<circle cx="12" cy="12" r="12" fill="#626364"/>
<path d="M20.8487 10.2935L17.8064 8.63405V6.48393C17.8064 6.32367 17.6766 6.19361 17.5161 6.19361H15.4838V5.03232C15.4838 4.92606 15.4258 4.82823 15.3326 4.77742L12.139 3.03549C12.0528 2.98817 11.9474 2.98817 11.8612 3.03549L8.66765 4.77742C8.57417 4.82823 8.51611 4.92606 8.51611 5.03232V6.19361H6.48386C6.32331 6.19361 6.19354 6.32367 6.19354 6.48393V8.63405L3.15126 10.2935C3.05806 10.3443 3 10.4422 3 10.5484V13.4516C3 13.5579 3.05806 13.6557 3.15126 13.7065L6.34479 15.4485C6.38805 15.472 6.43595 15.4839 6.48386 15.4839C6.53176 15.4839 6.57966 15.472 6.62292 15.4485L9.81646 13.7065C9.90965 13.6557 9.96771 13.5579 9.96771 13.4516V10.5484C9.96771 10.4422 9.90965 10.3443 9.81646 10.2935L6.77418 8.63405V6.77425H8.51611V7.93554C8.51611 8.04179 8.57417 8.13963 8.66736 8.19044L11.8609 9.93237C11.9042 9.95588 11.9521 9.96779 12 9.96779C12.0479 9.96779 12.0958 9.95588 12.139 9.93237L15.3326 8.19044C15.4258 8.13963 15.4838 8.04179 15.4838 7.93554V6.77425H17.2257V8.63405L14.1835 10.2935C14.0903 10.3443 14.0322 10.4422 14.0322 10.5484V13.4516C14.0322 13.5579 14.0903 13.6557 14.1835 13.7065L17.377 15.4485C17.4203 15.472 17.4682 15.4839 17.5161 15.4839C17.564 15.4839 17.6119 15.472 17.6551 15.4485L20.8487 13.7065C20.9419 13.6557 20.9999 13.5579 20.9999 13.4516V10.5484C20.9999 10.4422 20.9419 10.3443 20.8487 10.2935ZM3.58064 11.0373L6.19354 12.4625V14.7044L3.58064 13.2792V11.0373ZM6.77418 14.7044V12.4625L9.38707 11.0373V13.2792L6.77418 14.7044ZM9.0712 10.5484L6.48386 11.9597L3.89651 10.5484L6.19354 9.29569V9.96779H6.77418V9.29569L9.0712 10.5484ZM12 3.62107L14.5873 5.03232L12 6.44357L9.41262 5.03232L12 3.62107ZM9.09675 6.77425H9.67739V6.19361H9.09675V5.52122L11.7096 6.94641V9.18827L9.09675 7.76309V6.77425ZM14.9032 7.76309L12.2903 9.18827V6.94641L14.9032 5.52122V6.19361H14.3225V6.77425H14.9032V7.76309ZM17.2257 9.29569V9.96779H17.8064V9.29569L20.1034 10.5484L17.5161 11.9597L14.9287 10.5484L17.2257 9.29569ZM14.6129 11.0373L17.2257 12.4625V14.7044L14.6129 13.2792V11.0373ZM17.8064 14.7044V12.4625L20.4193 11.0373V13.2792L17.8064 14.7044Z" fill="#A5A6A7"/>
<path d="M17.2261 17.2249H15.4841V16.0636C15.4841 15.9573 15.4261 15.8595 15.3329 15.8087L12.1393 14.0667C12.0531 14.0194 11.9477 14.0194 11.8615 14.0667L8.66797 15.8087C8.57448 15.8595 8.51642 15.9573 8.51642 16.0636V17.2249H6.77449V16.0636H6.19385V17.5152C6.19385 17.6754 6.32362 17.8055 6.48417 17.8055H8.51642V18.9668C8.51642 19.073 8.57448 19.1709 8.66768 19.2217L11.8612 20.9636C11.9045 20.9871 11.9524 20.999 12.0003 20.999C12.0482 20.999 12.0961 20.9871 12.1393 20.9636L15.3329 19.2217C15.4261 19.1709 15.4841 19.073 15.4841 18.9668V17.8055H17.5164C17.6769 17.8055 17.8067 17.6754 17.8067 17.5152V16.0636H17.2261V17.2249ZM12.0003 14.6523L14.5876 16.0636L12.0003 17.4748L9.41293 16.0636L12.0003 14.6523ZM9.09706 17.8055H9.6777V17.2249H9.09706V16.5525L11.71 17.9777V20.2195L9.09706 18.7943V17.8055ZM14.9035 18.7943L12.2906 20.2195V17.9777L14.9035 16.5525V17.2249H14.3228V17.8055H14.9035V18.7943Z" fill="#A5A6A7"/>
</svg>
