<svg width="128" height="128" viewBox="0 0 128 128" fill="none" xmlns="http://www.w3.org/2000/svg">
<path d="M64.0013 117.333C93.4565 117.333 117.335 93.455 117.335 63.9998C117.335 34.5446 93.4565 10.6665 64.0013 10.6665C34.5461 10.6665 10.668 34.5446 10.668 63.9998C10.668 93.455 34.5461 117.333 64.0013 117.333Z" fill="#75B50E"/>
<path d="M56.4277 83.0934C55.361 83.0934 54.3477 82.6667 53.601 81.92L38.5077 66.8267C36.961 65.28 36.961 62.72 38.5077 61.1734C40.0543 59.6267 42.6143 59.6267 44.161 61.1734L56.4277 73.44L83.841 46.0267C85.3877 44.48 87.9477 44.48 89.4943 46.0267C91.041 47.5734 91.041 50.1334 89.4943 51.68L59.2543 81.92C58.5077 82.6667 57.4943 83.0934 56.4277 83.0934Z" fill="#141414"/>
</svg>
