<svg width="24" height="24" viewBox="0 0 24 24" fill="none" xmlns="http://www.w3.org/2000/svg">
<path d="M20.7692 22H3.23077C2.83128 22 2.5 21.6723 2.5 21.2771C2.5 20.8819 2.83128 20.5542 3.23077 20.5542H20.7692C21.1687 20.5542 21.5 20.8819 21.5 21.2771C21.5 21.6723 21.1687 22 20.7692 22Z" fill="#626364"/>
<path d="M5.7641 8.14928H4.20513C3.66923 8.14928 3.23077 8.58302 3.23077 9.11314V17.4216C3.23077 17.9517 3.66923 18.3854 4.20513 18.3854H5.7641C6.3 18.3854 6.73846 17.9517 6.73846 17.4216V9.11314C6.73846 8.57338 6.3 8.14928 5.7641 8.14928Z" fill="#626364"/>
<path d="M12.7787 5.07464H11.2198C10.6839 5.07464 10.2454 5.50838 10.2454 6.0385V17.4216C10.2454 17.9518 10.6839 18.3855 11.2198 18.3855H12.7787C13.3146 18.3855 13.7531 17.9518 13.7531 17.4216V6.0385C13.7531 5.50838 13.3146 5.07464 12.7787 5.07464Z" fill="#626364"/>
<path d="M19.7953 2H18.2363C17.7004 2 17.2619 2.43373 17.2619 2.96386V17.4217C17.2619 17.9518 17.7004 18.3855 18.2363 18.3855H19.7953C20.3312 18.3855 20.7696 17.9518 20.7696 17.4217V2.96386C20.7696 2.43373 20.3312 2 19.7953 2Z" fill="#626364"/>
</svg>
