<svg width="24" height="24" viewBox="0 0 24 24" fill="none" xmlns="http://www.w3.org/2000/svg">
<path d="M17.7088 11.877L20.6954 8.89037C21.623 7.9628 21.577 7.1668 20.531 6.12082L17.8733 3.4631C16.8273 2.41712 16.0313 2.37107 15.1037 3.29864L12.1236 6.2787C11.1895 7.21285 11.2421 8.00227 12.2881 9.04825L14.9458 11.706C15.9852 12.7585 16.7812 12.8046 17.7088 11.877Z" fill="#FBAB00"/>
<path d="M20 19.9012V16.0988C20 14.6024 19.3976 14 17.9012 14H14.0988C12.6024 14 12 14.6024 12 16.0988V19.9012C12 21.3976 12.6024 22 14.0988 22H17.9012C19.3976 22 20 21.3976 20 19.9012Z" fill="#FBAB00"/>
<path d="M10 10.1436V5.8657C10 4.53709 9.39765 4 7.90118 4H4.09882C2.60235 4 2 4.53709 2 5.8657V10.1342C2 11.4722 2.60235 11.9999 4.09882 11.9999H7.90118C9.39765 12.0093 10 11.4722 10 10.1436Z" fill="#FBAB00"/>
<path d="M10 19.9012V16.0988C10 14.6024 9.39765 14 7.90118 14H4.09882C2.60235 14 2 14.6024 2 16.0988V19.9012C2 21.3976 2.60235 22 4.09882 22H7.90118C9.39765 22 10 21.3976 10 19.9012Z" fill="#FBAB00"/>
</svg>
