<svg width="80" height="80" viewBox="0 0 80 80" fill="none" xmlns="http://www.w3.org/2000/svg">
    <path
        d="M69.5 23.8721C69.6526 23.784 69.7792 23.6572 69.867 23.5044C69.9548 23.3517 70.0007 23.1784 70 23.0023V15.0033C70.0007 14.8271 69.9548 14.6539 69.867 14.5011C69.7792 14.3484 69.6526 14.2215 69.5 14.1334L62.5 10.134C62.348 10.0462 62.1755 10 62 10C61.8245 10 61.652 10.0462 61.5 10.134L54.5 14.1334C54.3474 14.2215 54.2208 14.3484 54.133 14.5011C54.0452 14.6539 53.9993 14.8271 54 15.0033V18.0029H26V15.0033C26.0007 14.8271 25.9548 14.6539 25.867 14.5011C25.7792 14.3484 25.6526 14.2215 25.5 14.1334L18.5 10.134C18.348 10.0462 18.1755 10 18 10C17.8245 10 17.652 10.0462 17.5 10.134L10.5 14.1334C10.3474 14.2215 10.2208 14.3484 10.133 14.5011C10.0452 14.6539 9.99931 14.8271 10 15.0033V23.0023C9.99931 23.1784 10.0452 23.3517 10.133 23.5044C10.2208 23.6572 10.3474 23.784 10.5 23.8721L17 27.5816V52.4184L10.5 56.1279C10.3474 56.216 10.2208 56.3428 10.133 56.4956C10.0452 56.6483 9.99931 56.8216 10 56.9977V64.9967C9.99931 65.1729 10.0452 65.3461 10.133 65.4989C10.2208 65.6516 10.3474 65.7785 10.5 65.8666L17.5 69.866C17.652 69.9538 17.8245 70 18 70C18.1755 70 18.348 69.9538 18.5 69.866L25.5 65.8666C25.6526 65.7785 25.7792 65.6516 25.867 65.4989C25.9548 65.3461 26.0007 65.1729 26 64.9967V61.9971H54V64.9967C53.9993 65.1729 54.0452 65.3461 54.133 65.4989C54.2208 65.6516 54.3474 65.7785 54.5 65.8666L61.5 69.866C61.652 69.9538 61.8245 70 62 70C62.1755 70 62.348 69.9538 62.5 69.866L69.5 65.8666C69.6526 65.7785 69.7792 65.6516 69.867 65.4989C69.9548 65.3461 70.0007 65.1729 70 64.9967V56.9977C70.0007 56.8216 69.9548 56.6483 69.867 56.4956C69.7792 56.3428 69.6526 56.216 69.5 56.1279L63 52.4184V27.5816L69.5 23.8721ZM67 56.9977L62 59.8474L57 56.9977L62 54.1481L67 56.9977ZM62 25.8519L56 22.4223V16.7231L61.5 19.8727C61.652 19.9604 61.8245 20.0066 62 20.0066C62.1755 20.0066 62.348 19.9604 62.5 19.8727L68 16.7231V22.4223L62 25.8519ZM67 15.0033L62 17.8529L57 15.0033L62 12.1537L67 15.0033ZM23 15.0033L18 17.8529L13 15.0033L18 12.1537L23 15.0033ZM12 16.7231L17.5 19.8727C17.652 19.9604 17.8245 20.0066 18 20.0066C18.1755 20.0066 18.348 19.9604 18.5 19.8727L24 16.7231V22.4223L18 25.8519L12 22.4223V16.7231ZM23 56.9977L18 59.8474L13 56.9977L18 54.1481L23 56.9977ZM24 64.4168L18 67.8463L12 64.4168V58.7175L17.5 61.8671C17.652 61.9549 17.8245 62.0011 18 62.0011C18.1755 62.0011 18.348 61.9549 18.5 61.8671L24 58.7175V64.4168ZM26 59.9973V56.9977C26.0007 56.8216 25.9548 56.6483 25.867 56.4956C25.7792 56.3428 25.6526 56.216 25.5 56.1279L19 52.4184V27.5816L25.5 23.8721C25.6526 23.784 25.7792 23.6572 25.867 23.5044C25.9548 23.3517 26.0007 23.1784 26 23.0023V20.0026H54V23.0023C53.9993 23.1784 54.0452 23.3517 54.133 23.5044C54.2208 23.6572 54.3474 23.784 54.5 23.8721L61 27.5816V52.4184L54.5 56.1279C54.3474 56.216 54.2208 56.3428 54.133 56.4956C54.0452 56.6483 53.9993 56.8216 54 56.9977V59.9973H26ZM62 67.8463L56 64.4168V58.7175L61.5 61.8671C61.652 61.9549 61.8245 62.0011 62 62.0011C62.1755 62.0011 62.348 61.9549 62.5 61.8671L68 58.7175V64.4168L62 67.8463Z"
        fill="#626364" />
    <path
        d="M56 46.9291V33.0709C55.9957 32.1858 55.7564 31.3176 55.3067 30.5552C54.8569 29.7928 54.2127 29.1634 53.44 28.7315L42.44 22.6123C41.7066 22.2132 40.885 22.0042 40.05 22.0042C39.215 22.0042 38.3934 22.2132 37.66 22.6123L26.55 28.7415C25.7806 29.1739 25.1394 29.8022 24.6915 30.5626C24.2437 31.323 24.0051 32.1884 24 33.0709V46.9291C24.0043 47.8142 24.2436 48.6824 24.6933 49.4448C25.1431 50.2072 25.7873 50.8366 26.56 51.2685L37.61 57.3877C38.3434 57.7867 39.1651 57.9958 40 57.9958C40.835 57.9958 41.6566 57.7867 42.39 57.3877L46.75 54.998C46.8649 54.9344 46.9662 54.8487 47.048 54.7459C47.1299 54.6431 47.1906 54.5252 47.2268 54.3989C47.2631 54.2726 47.274 54.1404 47.2591 54.0099C47.2442 53.8794 47.2037 53.7531 47.14 53.6382C47.0115 53.4087 46.7977 53.2392 46.545 53.1662C46.2924 53.0932 46.0211 53.1227 45.79 53.2482L41.43 55.6479C40.991 55.886 40.4994 56.0106 40 56.0106C39.5006 56.0106 39.009 55.886 38.57 55.6479L27.57 49.5387C27.0991 49.2835 26.7052 48.9068 26.4291 48.4479C26.1531 47.989 26.0049 47.4646 26 46.9291V33.0709C26.0034 32.5438 26.1458 32.0269 26.4126 31.5722C26.6794 31.1176 27.0614 30.7413 27.52 30.4813L38.57 24.3721C39.009 24.134 39.5006 24.0094 40 24.0094C40.4994 24.0094 40.991 24.134 41.43 24.3721L52.43 30.4813C52.8979 30.7349 53.2899 31.1084 53.5658 31.5634C53.8417 32.0185 53.9916 32.5388 54 33.0709V46.9291C53.9966 47.4562 53.8543 47.9731 53.5874 48.4278C53.3206 48.8824 52.9386 49.2587 52.48 49.5187L49.48 51.2085C49.2493 51.3411 49.0807 51.5599 49.0113 51.8168C48.9419 52.0737 48.9774 52.3476 49.11 52.5783C49.2426 52.809 49.4614 52.9776 49.7184 53.047C49.9753 53.1164 50.2493 53.0809 50.48 52.9483L53.54 51.2585C54.2926 50.8147 54.9158 50.1814 55.3474 49.4218C55.7791 48.6622 56.0041 47.8027 56 46.9291Z"
        fill="#626364" />
    <path
        d="M35 44.9993C35.2652 44.9993 35.5196 44.894 35.7071 44.7065C35.8946 44.519 36 44.2647 36 43.9995V36.0005C36 35.7353 35.8946 35.481 35.7071 35.2935C35.5196 35.106 35.2652 35.0007 35 35.0007C34.7348 35.0007 34.4804 35.106 34.2929 35.2935C34.1054 35.481 34 35.7353 34 36.0005V40.9999L29.83 35.4406C29.854 35.4785 29.8741 35.5187 29.89 35.5606C29.8083 35.3938 29.6817 35.2531 29.5246 35.1542C29.3674 35.0553 29.1857 35.0022 29 35.0007C28.7348 35.0007 28.4804 35.106 28.2929 35.2935C28.1054 35.481 28 35.7353 28 36.0005V43.9995C28 44.2647 28.1054 44.519 28.2929 44.7065C28.4804 44.894 28.7348 44.9993 29 44.9993C29.2652 44.9993 29.5196 44.894 29.7071 44.7065C29.8946 44.519 30 44.2647 30 43.9995V39.0001L34.17 44.5594C34.146 44.5215 34.1259 44.4813 34.11 44.4394C34.1917 44.6062 34.3183 44.7469 34.4755 44.8458C34.6327 44.9447 34.8143 44.9978 35 44.9993Z"
        fill="#626364" />
    <path
        d="M43 37.0004C43.2652 37.0004 43.5196 36.8951 43.7071 36.7075C43.8946 36.52 44 36.2657 44 36.0005C44 35.7353 43.8946 35.481 43.7071 35.2935C43.5196 35.106 43.2652 35.0007 43 35.0007H39C38.7348 35.0007 38.4804 35.106 38.2929 35.2935C38.1054 35.481 38 35.7353 38 36.0005V43.9995C38 44.2647 38.1054 44.519 38.2929 44.7065C38.4804 44.894 38.7348 44.9993 39 44.9993C39.2652 44.9993 39.5196 44.894 39.7071 44.7065C39.8946 44.519 40 44.2647 40 43.9995V40.9999H43C43.2652 40.9999 43.5196 40.8945 43.7071 40.707C43.8946 40.5195 44 40.2652 44 40C44 39.7348 43.8946 39.4805 43.7071 39.293C43.5196 39.1055 43.2652 39.0001 43 39.0001H40V37.0004H43Z"
        fill="#626364" />
    <path
        d="M50 43.9995V37.0004H51C51.2652 37.0004 51.5196 36.8951 51.7071 36.7075C51.8946 36.52 52 36.2657 52 36.0005C52 35.7353 51.8946 35.481 51.7071 35.2935C51.5196 35.106 51.2652 35.0007 51 35.0007H47C46.7348 35.0007 46.4804 35.106 46.2929 35.2935C46.1054 35.481 46 35.7353 46 36.0005C46 36.2657 46.1054 36.52 46.2929 36.7075C46.4804 36.8951 46.7348 37.0004 47 37.0004H48V43.9995C48 44.2647 48.1054 44.519 48.2929 44.7065C48.4804 44.894 48.7348 44.9993 49 44.9993C49.2652 44.9993 49.5196 44.894 49.7071 44.7065C49.8946 44.519 50 44.2647 50 43.9995Z"
        fill="#626364" />
</svg>
